<svg width="83" height="83" viewBox="0 0 83 83" fill="none" xmlns="http://www.w3.org/2000/svg">
<path d="M13.8245 63.9389L40.1498 14.5785C40.7045 13.5382 42.2045 13.5572 42.7316 14.613L51.8419 32.8338L13.8245 63.9389Z" fill="#FF8F00"/>
<path d="M13.8245 63.9251L23.4083 4.82695C23.6589 3.28033 25.736 2.94509 26.4618 4.33445L44.9297 39.7322L13.8245 63.9251Z" fill="#FFA000"/>
<path d="M13.8384 63.914L14.184 63.6427L44.4753 38.8605L35.9317 22.4854L13.8384 63.914Z" fill="#FF6F00"/>
<path d="M13.8245 63.9389L59.9051 19.5051C60.8711 18.5737 62.4833 19.1232 62.6803 20.4504L69.1226 63.9389L43.2016 79.0474C42.1492 79.6384 40.8652 79.6384 39.8128 79.0474L13.8245 63.9389Z" fill="#FFC400"/>
</svg>
