<svg width="62" height="62" viewBox="0 0 62 62" fill="none" xmlns="http://www.w3.org/2000/svg">
<path d="M60.4194 28.2766L33.7226 1.58079C32.1861 0.0433828 29.6926 0.0433828 28.1537 1.58079L22.6105 7.12495L29.6427 14.1571C31.2774 13.6054 33.151 13.9755 34.4535 15.2779C35.7627 16.5887 36.1299 18.4782 35.5646 20.1183L42.342 26.8962C43.9816 26.3309 45.8741 26.6961 47.1829 28.0078C49.0138 29.8373 49.0138 32.8031 47.1829 34.6336C46.7477 35.0689 46.2311 35.4142 45.6625 35.6498C45.0939 35.8854 44.4845 36.0067 43.869 36.0067C43.2535 36.0067 42.6441 35.8854 42.0755 35.6498C41.5069 35.4142 40.9903 35.0689 40.5551 34.6336C39.9014 33.9795 39.4558 33.1466 39.2744 32.2398C39.093 31.333 39.1838 30.3927 39.5355 29.5375L33.2154 23.2173L33.2144 39.8513C33.673 40.0771 34.0917 40.3761 34.454 40.7367C36.2839 42.5662 36.2839 45.531 34.454 47.3644C32.6235 49.1939 29.6567 49.1939 27.8282 47.3644C25.9982 45.5315 25.9982 42.5667 27.8282 40.7367C28.2666 40.2976 28.7881 39.9501 29.3622 39.7147V22.9267C28.7876 22.6919 28.266 22.3442 27.8282 21.9042C26.4419 20.5189 26.1082 18.4845 26.8192 16.7814L19.8864 9.84859L1.58088 28.1531C0.842366 28.8919 0.42749 29.8937 0.42749 30.9383C0.42749 31.9829 0.842366 32.9847 1.58088 33.7234L28.2782 60.4193C29.8156 61.9567 32.3082 61.9567 33.848 60.4193L60.4199 33.8474C61.1582 33.1085 61.5729 32.1066 61.5728 31.0619C61.5728 30.0173 61.1579 29.0155 60.4194 28.2766Z" fill="#F34F29"/>
</svg>
