<svg width="83" height="83" viewBox="0 0 83 83" fill="none" xmlns="http://www.w3.org/2000/svg">
<path d="M49.5469 4.98833C49.3714 5.01533 49.1959 5.06933 49.0271 5.14358C47.6028 5.85236 45.9827 7.95169 45.6722 8.36346C45.652 8.39046 45.6317 8.41746 45.6182 8.44446C44.0184 10.8408 43.1679 13.6489 43.1341 16.5718C43.1139 18.7589 43.5391 20.9324 44.4099 23.025C46.4282 27.8785 50.6269 31.8949 55.6288 33.7782C55.7976 33.8322 55.9596 33.8929 56.2499 33.9942C56.2769 34.0077 56.5199 34.0887 56.5604 34.0954L56.7426 34.1562C56.9991 34.2439 57.2692 34.3249 57.5257 34.379C58.842 34.6422 60.1245 34.7907 61.3261 34.8312C61.5353 34.8312 61.7446 34.838 61.9538 34.838C71.0397 34.838 74.5701 28.4252 75.7379 26.2854C75.8594 26.0761 75.9404 25.9074 76.0214 25.8061C76.0214 25.7994 76.0214 25.7994 76.0281 25.7926C76.5411 25.0298 76.3454 24.0038 75.5826 23.484C74.8333 22.971 73.8005 23.1668 73.2875 23.9228H73.2808C70.8574 27.4937 66.706 28.5805 60.9615 27.1494C60.5295 27.0482 60.0638 26.8862 59.652 26.7309C59.1052 26.5352 58.5652 26.3124 58.0589 26.0626C57.0532 25.5631 56.1081 24.9691 55.2508 24.3076C50.1949 20.3857 48.2171 12.2314 51.1737 7.51967C51.5719 6.88515 51.4977 6.07512 50.9982 5.5216C50.6269 5.10308 50.0801 4.92082 49.5469 4.98833ZM34.8515 8.29595C34.4735 8.2892 34.0955 8.41071 33.7783 8.66722C31.2739 10.7125 28.7088 14.0539 28.5941 14.1889C28.5873 14.2159 28.5738 14.2362 28.5536 14.2632C24.0174 20.8649 23.6731 30.2613 27.6828 38.1996C28.3105 39.4551 29.0261 40.6567 29.7821 41.757L30.0116 42.081C30.6529 43.0193 31.3684 44.0858 32.2932 44.9161C32.6105 45.2806 32.9547 45.6249 33.2922 45.9624L33.4542 46.1311L33.5893 46.2662C33.9335 46.5969 34.2778 46.9344 34.6423 47.2584H34.649C34.676 47.2989 34.7165 47.3259 34.7503 47.3597C35.1553 47.7175 35.5671 48.0617 36.1206 48.5005L36.2691 48.6085C36.6944 48.9528 37.1331 49.2768 37.5787 49.594C37.6259 49.6278 37.6664 49.6548 37.7137 49.6885C37.8689 49.7965 38.0242 49.891 38.1794 49.9991L38.3347 50.1071L38.5169 50.2218C38.8477 50.4446 39.1717 50.6403 39.6307 50.9103C39.9345 51.0926 40.2518 51.2748 40.4543 51.3761C40.5488 51.4301 40.6433 51.4774 40.8728 51.5989L41.3791 51.8689C41.3993 51.8824 41.5208 51.9296 41.5478 51.9431C41.8786 52.1119 42.2161 52.2739 42.5603 52.4291L43.0869 52.6654C43.4311 52.8139 43.7821 52.9557 44.2074 53.1177L44.4032 53.1919C44.4167 53.2054 44.5787 53.2594 44.5922 53.2662C44.9027 53.3809 45.2199 53.4889 45.5372 53.5902L46.2595 53.8332C46.624 53.9547 47.0493 54.0965 47.5083 54.1775C49.7696 54.5487 51.9635 54.7445 54.0425 54.7445C54.2923 54.7445 54.5353 54.7377 54.7783 54.7377C73.0918 54.3395 77.8507 38.7801 77.8979 38.6249C78.1275 37.8351 77.7562 37.0048 77.0204 36.6538C76.2779 36.3028 75.4004 36.5458 74.9346 37.2208C70.2972 43.9981 61.5218 46.8669 52.5845 44.5043C52.1727 44.4031 51.7677 44.2883 51.2749 44.1263C51.1872 44.0993 51.1129 44.0723 50.9779 44.0183C50.6877 43.9306 50.4041 43.8293 50.0801 43.7078L49.6211 43.5323C49.3511 43.431 49.0878 43.3298 48.7638 43.1813L48.5478 43.0868C48.1563 42.918 47.7715 42.729 47.4273 42.5603L46.4822 42.0675C46.2662 41.9662 46.084 41.8515 45.787 41.676L45.463 41.487C45.2267 41.3452 44.9837 41.1967 44.7677 41.0415L44.6124 40.9402C44.5989 40.9335 44.4707 40.8457 44.4572 40.8322C44.2614 40.7107 44.0724 40.5824 43.8901 40.4677C43.4919 40.1842 43.0936 39.8872 42.6346 39.5226L42.4523 39.3741C38.1727 35.9585 35.0136 31.3953 33.5285 26.5014C32.1514 22.0125 33.1707 16.133 36.2691 10.78C36.6741 10.0915 36.5256 9.20724 35.9046 8.68747C35.6008 8.43096 35.2296 8.29595 34.8515 8.29595ZM16.5988 13.2709C16.2006 13.2709 15.7956 13.4126 15.4783 13.6962C12.3124 16.5448 9.94309 20.2304 9.67983 20.6557C2.90258 30.5246 4.21212 45.8611 8.86305 55.2372C8.95756 55.433 9.05206 55.622 9.15331 55.811L9.21407 55.9123C9.30182 56.1013 9.39632 56.297 9.43007 56.3308C9.47733 56.459 9.55833 56.5941 9.59208 56.6278C9.66633 56.7898 9.74734 56.9383 9.88909 57.1813L10.4224 58.0926C10.4966 58.2209 10.5776 58.3491 10.6046 58.3964C10.7059 58.5651 10.8139 58.7339 10.9286 58.9094L11.1851 59.3279C11.2594 59.4494 11.3404 59.5574 11.3944 59.6249C11.6509 60.0232 11.9074 60.4282 12.1977 60.813C12.2112 60.8332 12.2247 60.84 12.2314 60.8535L12.3394 60.9952C12.5689 61.3327 12.812 61.6567 13.028 61.9268L13.973 63.1216C13.9865 63.1351 14.0878 63.2633 14.0945 63.2701L14.2295 63.4253C14.513 63.7763 14.8235 64.1273 15.1273 64.4649C15.1678 64.5189 15.215 64.5594 15.2623 64.6134C15.5526 64.9306 15.8496 65.2479 16.1601 65.5786L16.4571 65.8622C16.7069 66.1254 16.9499 66.3752 17.2131 66.6182C17.2131 66.6249 17.3346 66.7397 17.3346 66.7397L17.5911 66.9827C17.9016 67.2797 18.2257 67.5767 18.4754 67.786C18.4889 67.7995 18.7184 68.002 18.7387 68.0155C19.0424 68.2855 19.353 68.5488 19.6635 68.7985L21.2498 70.0608C21.513 70.2498 21.7898 70.4456 22.1003 70.6751C22.2016 70.7493 22.3096 70.8304 22.4243 70.8979C22.4648 70.9384 22.5188 70.9789 22.5526 70.9991L23.7406 71.7956C24.1794 72.0791 24.6114 72.3424 25.1447 72.6597L25.4282 72.8217C25.7589 73.0174 26.0965 73.2132 26.4137 73.382C26.6027 73.4832 26.7917 73.5777 26.9537 73.6587C27.1765 73.787 27.4263 73.922 27.7975 74.1042C27.8313 74.1177 28.1013 74.2527 28.1283 74.2662C28.5063 74.4485 28.8911 74.624 29.3703 74.84C29.3703 74.8468 29.5256 74.921 29.5256 74.921C29.9644 75.1033 30.3896 75.2855 30.9566 75.515C31.0444 75.5555 31.1389 75.5825 31.1592 75.5893C31.5574 75.7445 31.9827 75.8998 32.3202 76.028C32.354 76.0415 32.5295 76.1091 32.5632 76.1226C33.0222 76.2778 33.4745 76.4263 34.0618 76.6086C34.1563 76.6423 34.2643 76.6761 34.271 76.6761L34.6018 76.7773C35.0068 76.8988 35.4051 77.0338 35.8438 77.1148C38.9287 77.6819 41.9393 77.9721 44.7947 77.9721C68.5623 77.9721 76.1294 58.8486 76.2104 58.6529C76.5006 57.8834 76.1834 57.0126 75.4544 56.6143C74.7456 56.216 73.8343 56.405 73.328 57.0598C67.2325 65.0859 55.7301 68.0695 42.5603 65.0454C42.2431 64.9644 41.9191 64.8766 41.6018 64.7754L40.9808 64.5864C40.5623 64.4581 40.137 64.3163 39.732 64.1746C39.7252 64.1746 39.5362 64.1003 39.5362 64.1003C39.1717 63.9788 38.8072 63.8371 38.4899 63.7156L38.1322 63.5738C37.7272 63.4118 37.3289 63.2431 36.9374 63.0676L36.7079 62.9663C36.3636 62.8043 36.0261 62.649 35.6886 62.4803C35.6616 62.4668 35.3983 62.3385 35.3713 62.3318C35.1351 62.217 34.9056 62.0955 34.6018 61.9335L33.2517 61.2045C33.1167 61.1167 32.9682 61.029 32.8332 60.9615C32.4282 60.705 32.0029 60.4552 31.5912 60.1852C31.4967 60.1312 31.4089 60.0637 31.2469 59.9557C30.9634 59.7734 30.6866 59.5844 30.2749 59.3009L30.1129 59.1861C29.8361 58.9904 29.5661 58.7811 29.3366 58.6124C29.1948 58.5111 29.0531 58.3964 28.8168 58.2209C28.6076 58.0589 28.4051 57.9036 28.2093 57.7483L27.8448 57.4446C27.541 57.2016 27.2575 56.9451 26.9605 56.6886C26.92 56.6481 26.8862 56.6211 26.839 56.5941C26.5082 56.2903 26.1707 55.9798 25.7724 55.6018L24.5979 54.434C24.3144 54.1437 24.0309 53.8467 23.7069 53.4889C23.4099 53.1582 23.1196 52.8274 22.7416 52.3751L22.0396 51.5179C21.9518 51.3964 21.864 51.2748 21.756 51.1398C21.513 50.8158 21.2768 50.4986 21.0338 50.1611C14.5805 41.271 12.893 22.7145 17.9219 15.917C18.4282 15.2352 18.3404 14.2767 17.7059 13.6962C17.3954 13.4126 16.9904 13.2709 16.5988 13.2709Z" fill="#0865A6"/>
</svg>
