<svg width="62" height="62" viewBox="0 0 62 62" fill="none" xmlns="http://www.w3.org/2000/svg">
<path fill-rule="evenodd" clip-rule="evenodd" d="M42.6433 20.7368C43.4207 22.9858 43.9807 25.2817 44.1647 27.6614C44.3933 30.6137 44.2887 33.5451 43.6663 36.449C43.6493 36.5289 43.6135 36.604 43.5869 36.6815C43.3917 36.682 43.1926 36.6577 43.0017 36.6873C41.3892 36.9406 39.7782 37.2031 38.1672 37.4642C36.5019 37.734 34.8342 37.9932 33.1718 38.2814C32.5828 38.3831 31.8538 38.2615 31.616 39.0762C31.6092 39.0985 31.5414 39.1024 31.5022 39.115L31.5826 34.2465L31.5007 22.4995L32.2767 22.3663C33.5458 22.1585 34.8148 21.9478 36.0849 21.7458C37.6005 21.505 39.1175 21.2711 40.6341 21.0362C41.303 20.932 41.9729 20.8366 42.6433 20.7368Z" fill="#439934"/>
<path fill-rule="evenodd" clip-rule="evenodd" d="M29.9001 53.3077C29.0815 52.6039 28.2343 51.9311 27.4496 51.1909C23.2273 47.2084 20.139 42.5211 18.618 36.8699C18.199 35.3146 17.9196 33.7341 17.8299 32.1269C17.767 31.0022 17.6759 29.8673 17.7554 28.7484C17.967 25.7724 18.3971 22.825 19.27 19.9584L19.3179 19.8916C19.4027 20.0045 19.5248 20.1042 19.5679 20.2316C20.4199 22.7407 21.2656 25.2517 22.107 27.7641C24.7507 35.6595 27.391 43.5567 30.0391 51.4501C30.0909 51.6041 30.2251 51.7305 30.3215 51.8696L29.9001 53.3077Z" fill="#45A538"/>
<path fill-rule="evenodd" clip-rule="evenodd" d="M42.6434 20.7368C41.9731 20.8366 41.3027 20.932 40.6338 21.0352C39.1172 21.2701 37.6001 21.5041 36.0845 21.7448C34.8145 21.9468 33.5454 22.1575 32.2763 22.3653L31.5004 22.4985L31.4946 21.9923C31.4689 21.5763 31.4248 21.1607 31.42 20.7446C31.3865 18.0912 31.3657 15.4378 31.3328 12.7844C31.3124 11.1235 31.2819 9.46302 31.248 7.80258C31.2272 6.77086 31.2049 5.73866 31.1584 4.70839C31.1332 4.15475 31.0441 3.60402 31.0078 3.05038C30.9874 2.73214 31.0155 2.41148 31.0218 2.0918C31.4175 2.85856 31.8046 3.63114 32.2114 4.39209C32.8542 5.59528 33.8782 6.48169 34.7999 7.44898C38.4439 11.2717 41.0309 15.7163 42.6434 20.7368Z" fill="#46A037"/>
<path fill-rule="evenodd" clip-rule="evenodd" d="M31.5018 39.1145C31.5411 39.1019 31.6094 39.098 31.6157 39.0757C31.8535 38.261 32.5825 38.3826 33.1715 38.2809C34.8338 37.9931 36.5015 37.7335 38.1668 37.4637C39.7778 37.2026 41.3889 36.9401 43.0014 36.6868C43.1922 36.6568 43.3913 36.6815 43.5865 36.681C43.2852 37.7563 43.0479 38.8548 42.6657 39.9006C42.2317 41.0868 41.7066 42.2445 41.1491 43.3794C40.3145 45.0721 39.2815 46.6596 38.0719 48.1083C37.1424 49.2263 36.1063 50.2595 35.0678 51.28C34.4938 51.8443 33.8171 52.304 33.1874 52.8111L33.0242 52.6997L32.4362 52.197L31.8278 50.8635C31.4123 49.3079 31.1855 47.708 31.1526 46.0982L31.1637 45.8265L31.2466 44.6514C31.2742 44.2503 31.311 43.8497 31.3279 43.4477C31.3904 42.0033 31.4447 40.5589 31.5018 39.1145Z" fill="#409433"/>
<path fill-rule="evenodd" clip-rule="evenodd" d="M31.5019 39.1146C31.4448 40.559 31.3905 42.0034 31.329 43.4483C31.3121 43.8504 31.2752 44.2509 31.2476 44.652L30.8771 44.792C30.0541 42.3691 29.2307 39.972 28.4252 37.5685C27.0931 33.5923 25.7771 29.6097 24.447 25.6325C23.3727 22.4223 22.2909 19.2146 21.2017 16.0095C21.1508 15.8593 21.0046 15.7421 20.9028 15.6094L23.2743 11.249C23.3557 11.3905 23.4632 11.5227 23.5146 11.6748C24.6129 14.9211 25.7057 18.1693 26.7928 21.4194C28.2053 25.648 29.609 29.88 31.0205 34.1091C31.0766 34.2781 31.1696 34.4341 31.2583 34.6235L31.5828 34.2457L31.5019 39.1146Z" fill="#4FAA41"/>
<path fill-rule="evenodd" clip-rule="evenodd" d="M20.9032 15.6099C21.005 15.7426 21.1508 15.8598 21.2021 16.01C22.2913 19.2151 23.3731 22.4228 24.4474 25.633C25.7775 29.6102 27.0936 33.5928 28.4256 37.569C29.2306 39.972 30.0541 42.3696 30.8775 44.7925L31.248 44.6525L31.1652 45.8276L31.0901 46.0984C30.9613 47.3849 30.8528 48.6743 30.6958 49.9579C30.6169 50.6011 30.4493 51.2327 30.3219 51.8697C30.226 51.7307 30.0913 51.6043 30.0395 51.4502C27.3914 43.5564 24.7511 35.6596 22.1074 27.7643C21.2663 25.2517 20.42 22.7408 19.5683 20.2318C19.5252 20.1044 19.4036 20.0046 19.3184 19.8917L20.9032 15.6099Z" fill="#4AA73C"/>
<path fill-rule="evenodd" clip-rule="evenodd" d="M31.5822 34.2463L31.2576 34.6241C31.169 34.4347 31.076 34.2783 31.0198 34.1097C29.6088 29.8806 28.2046 25.6487 26.7922 21.4201C25.705 18.17 24.6123 14.9218 23.5139 11.6754C23.4631 11.5233 23.3555 11.3906 23.2737 11.2496L26.2066 7.3916C26.2991 7.51512 26.4308 7.62507 26.4788 7.76409C27.293 10.1477 28.1 12.5342 28.9021 14.9222C29.6514 17.1522 30.3896 19.3857 31.1477 21.6129C31.1985 21.762 31.3753 21.8676 31.4935 21.9936L31.4993 22.4997C31.5274 26.4145 31.555 30.3306 31.5822 34.2463Z" fill="#57AE47"/>
<path fill-rule="evenodd" clip-rule="evenodd" d="M31.4945 21.9926C31.3763 21.8667 31.1995 21.7611 31.1486 21.6119C30.3906 19.3847 29.6524 17.1513 28.9031 14.9212C28.1009 12.5332 27.294 10.1472 26.4797 7.76312C26.4318 7.62411 26.3 7.51416 26.2075 7.39064C27.1613 6.45677 28.0854 5.48947 29.0774 4.5987C29.9595 3.80723 30.6686 2.95861 30.7011 1.70795C30.7025 1.65612 30.7296 1.6043 30.7713 1.45898L31.0227 2.09158C31.0164 2.41175 30.9878 2.73192 31.0086 3.05016C31.045 3.6038 31.1341 4.15453 31.1593 4.70817C31.2058 5.73844 31.2281 6.77064 31.2489 7.80236C31.2823 9.4628 31.3128 11.1232 31.3337 12.7842C31.3661 15.4376 31.3874 18.091 31.4208 20.7444C31.4247 21.1614 31.4683 21.5765 31.4945 21.9926Z" fill="#60B24F"/>
<path fill-rule="evenodd" clip-rule="evenodd" d="M30.3208 51.8689C30.4482 51.232 30.6158 50.5999 30.6948 49.9571C30.8522 48.674 30.9602 47.3841 31.089 46.0976L31.121 46.0928L31.153 46.0981C31.1859 47.7079 31.4126 49.3078 31.8282 50.8634C31.7429 50.9758 31.6223 51.076 31.5773 51.2029C31.2252 52.1959 30.8934 53.1966 30.5393 54.1896C30.4908 54.3252 30.3562 54.4308 30.2612 54.55L29.8994 53.3071L30.3208 51.8689Z" fill="#A9AA88"/>
<path fill-rule="evenodd" clip-rule="evenodd" d="M30.2617 54.5508C30.3567 54.4317 30.4918 54.3261 30.5397 54.1905C30.8938 53.1975 31.2261 52.1973 31.5778 51.2038C31.6228 51.0769 31.7429 50.9766 31.8287 50.8643L32.4366 52.1982C32.3164 52.3687 32.1508 52.5223 32.0839 52.7121L30.9195 56.1314C30.8715 56.2684 30.7078 56.3653 30.5984 56.4811L30.2617 54.5508Z" fill="#B6B598"/>
<path fill-rule="evenodd" clip-rule="evenodd" d="M30.5984 56.4801C30.7083 56.3648 30.8716 56.2675 30.9195 56.1304L32.084 52.7112C32.1503 52.5218 32.3165 52.3678 32.4366 52.1973L33.0251 52.6996C32.7408 52.9805 32.5829 53.305 32.6778 53.7153L32.4991 54.3004C32.4177 54.4007 32.3 54.4879 32.2598 54.6027C31.8534 55.7666 31.4654 56.9369 31.0561 58.1008C31.0043 58.2486 30.8604 58.3643 30.7587 58.4941C30.7059 57.8223 30.6522 57.1519 30.5984 56.4801Z" fill="#C2C1A7"/>
<path fill-rule="evenodd" clip-rule="evenodd" d="M30.7592 58.4945C30.8605 58.3642 31.0043 58.2484 31.0566 58.1012C31.4659 56.9377 31.8539 55.7675 32.2603 54.603C32.3005 54.4887 32.4177 54.401 32.4996 54.3008L32.253 56.9866C32.1872 57.0627 32.0917 57.129 32.0603 57.2177C31.7817 57.9995 31.5192 58.7871 31.2397 59.5688C31.1821 59.7301 31.0716 59.8725 30.9854 60.0232C30.9089 59.9229 30.7718 59.826 30.7655 59.7214C30.7408 59.3141 30.7578 58.9038 30.7592 58.4945Z" fill="#CECDB7"/>
<path fill-rule="evenodd" clip-rule="evenodd" d="M30.9851 60.0229C31.0713 59.8717 31.1818 59.7293 31.2394 59.5685C31.5194 58.7872 31.7814 57.9996 32.0599 57.2174C32.0914 57.1287 32.1873 57.0629 32.2527 56.9863L32.2585 58.7495L31.6686 60.2626L30.9851 60.0229Z" fill="#DBDAC7"/>
<path fill-rule="evenodd" clip-rule="evenodd" d="M31.6685 60.2632L32.2584 58.75L32.38 60.5402L31.6685 60.2632Z" fill="#EBE9DC"/>
<path fill-rule="evenodd" clip-rule="evenodd" d="M32.6778 53.7159C32.5829 53.3057 32.7403 52.9806 33.0251 52.7002L33.1884 52.8116L32.6778 53.7159Z" fill="#CECDB7"/>
<path fill-rule="evenodd" clip-rule="evenodd" d="M31.1531 46.0994L31.1211 46.094L31.0891 46.0989L31.1642 45.8281L31.1531 46.0994Z" fill="#4FAA41"/>
</svg>
