<svg width="62" height="62" viewBox="0 0 62 62" fill="none" xmlns="http://www.w3.org/2000/svg">
<path d="M56.6467 47.3754C53.3225 47.2848 50.7839 47.5944 48.6134 48.5093C47.9968 48.7695 47.0125 48.7767 46.9118 49.5493C47.2508 49.9043 47.3036 50.4352 47.5729 50.8721C48.0912 51.7101 48.966 52.8348 49.7468 53.4238C50.6003 54.068 51.4794 54.7563 52.3939 55.3138C54.0205 56.3054 55.8364 56.8721 57.4024 57.8655C58.3256 58.4516 59.2425 59.1893 60.143 59.85C60.5886 60.177 60.8874 60.6851 61.4663 60.89V60.796C61.1621 60.4085 61.0836 59.8767 60.8046 59.4722L59.5758 58.2433C58.3745 56.6488 56.8492 55.248 55.228 54.085C53.9352 53.1569 51.042 51.9034 50.5029 50.3994L50.4085 50.3049C51.3249 50.2013 52.3978 49.8699 53.244 49.6428C54.6652 49.2621 55.9352 49.3604 57.4024 48.9816L59.3868 48.4144V48.0366C58.6453 47.2756 58.1163 46.2681 57.3079 45.5794C55.1912 43.7775 52.8817 41.9771 50.5034 40.4755C49.184 39.6433 47.554 39.1023 46.1557 38.3966C45.6853 38.1587 44.859 38.0352 44.5485 37.64C43.8137 36.7042 43.4141 35.5174 42.8479 34.4271C41.6616 32.1423 40.4967 29.6473 39.4456 27.2433C38.7287 25.6042 38.2603 23.9883 37.3662 22.5178C33.0746 15.4619 28.4556 11.2037 21.3 7.01778C19.7771 6.12749 17.9437 5.77632 16.0062 5.31617C14.9672 5.25368 13.9273 5.19023 12.8878 5.12678C12.2528 4.86231 11.5931 4.08585 10.9978 3.70901C8.62725 2.21132 2.5464 -1.0461 0.791029 3.23674C-0.317706 5.94004 2.44808 8.57698 3.43669 9.94728C4.13128 10.9073 5.02011 11.985 5.51611 13.0657C5.84258 13.7763 5.89876 14.4888 6.17825 15.24C6.86461 17.0913 7.46281 19.1054 8.35164 20.8157C8.80065 21.6817 9.29569 22.5933 9.86386 23.3674C10.2116 23.8425 10.8089 24.0518 10.9028 24.7851C10.3197 25.6018 10.2862 26.8699 9.95831 27.9045C8.48097 32.5618 9.03848 38.351 11.1872 41.7978C11.8459 42.8567 13.3993 45.126 15.5344 44.2551C17.4022 43.4946 16.9851 41.1367 17.5194 39.0568C17.64 38.5855 17.5659 38.2387 17.8028 37.9228V38.0173L19.5044 41.4195C20.7637 43.4476 22.9977 45.5668 24.8916 46.9966C25.8734 47.7382 26.6465 49.0199 27.916 49.4539V49.3589H27.8216C27.5755 48.9758 27.1904 48.8169 26.8766 48.5089C26.1369 47.7837 25.3145 46.8823 24.7032 46.0516C22.9807 43.7135 21.4588 41.1546 20.0721 38.491C19.4094 37.2186 18.8335 35.8158 18.2755 34.5211C18.0605 34.0222 18.0634 33.267 17.6148 33.0089C17.0031 33.9573 16.1026 34.7245 15.6299 35.8444C14.8737 37.6346 14.7764 39.8182 14.4959 42.0822C14.3303 42.1413 14.4039 42.1006 14.3065 42.1761C12.99 41.8589 12.5279 40.5041 12.0382 39.3411C10.8011 36.4009 10.571 31.6676 11.6599 28.2833C11.9418 27.4071 13.2148 24.65 12.6994 23.8406C12.4533 23.0336 11.6415 22.5667 11.1877 21.9501C10.6253 21.1877 10.0644 20.1841 9.67447 19.3035C8.66212 17.0119 8.18937 14.4384 7.12326 12.1212C6.61322 11.0134 5.75151 9.89206 5.04384 8.90781C4.26061 7.81651 3.38292 7.01293 2.77551 5.69398C2.55948 5.2251 2.26644 4.47432 2.58612 3.99237C2.68784 3.66735 2.83219 3.53173 3.15333 3.42565C3.70164 3.00279 5.22839 3.56612 5.79898 3.80298C7.31459 4.43267 8.57978 5.03232 9.86386 5.88288C10.4795 6.2917 11.1034 7.08171 11.8483 7.30065H12.6989C14.0295 7.60629 15.5199 7.3951 16.7633 7.77292C18.9604 8.44039 20.9294 9.47937 22.7172 10.6084C28.1645 14.0485 32.6188 18.9445 35.6655 24.7856C36.1557 25.7263 36.3679 26.6233 36.7995 27.6212C37.6704 29.6328 38.7675 31.7025 39.634 33.67C40.4991 35.6327 41.3419 37.6133 42.5645 39.2466C43.2073 40.1049 45.6892 40.5656 46.8178 41.0427C47.6083 41.3764 48.904 41.7252 49.6533 42.1761C51.0837 43.0393 52.47 44.0667 53.8122 45.0122C54.4821 45.4844 56.544 46.5215 56.6467 47.3754ZM14.4 11.3665C13.7069 11.3534 13.2167 11.4421 12.6984 11.5549V11.6494H12.7929C13.1237 12.3285 13.7074 12.7663 14.1157 13.351C14.4305 14.0131 14.7459 14.6743 15.0612 15.3355L15.1552 15.242C15.7408 14.8288 16.0086 14.1696 16.0052 13.1621C15.7708 12.9155 15.7364 12.6065 15.533 12.312C15.2637 11.9192 14.741 11.6959 14.4 11.3665Z" fill="#00618A"/>
</svg>
