<svg width="62" height="62" viewBox="0 0 62 62" fill="none" xmlns="http://www.w3.org/2000/svg">
<path d="M54.6235 14.6927L33.264 2.29028C31.9169 1.52303 30.163 1.52303 28.8053 2.29028L7.21767 14.6927C5.82752 15.4924 4.84375 16.9954 4.84375 18.6031V43.375C4.84375 44.9826 5.85319 46.4861 7.24334 47.2902L12.9469 50.5297C15.6729 51.8724 16.6363 51.8724 17.8768 51.8724C21.9131 51.8724 24.2188 49.4316 24.2188 45.1744V20.7183C24.2188 20.373 24.039 19.859 23.7 19.859H20.9763C20.6315 19.859 19.8594 20.373 19.8594 20.7178V45.1739C19.8594 47.0611 18.1524 48.939 14.9623 47.3439L9.06895 43.947C8.86358 43.8356 8.71875 43.6113 8.71875 43.375V18.6031C8.71875 18.3696 8.98758 18.1352 9.19441 18.0155L30.7123 5.63441C30.9133 5.52058 31.2088 5.52058 31.4093 5.63441L52.6646 18.0126C52.8681 18.1352 52.7964 18.3623 52.7964 18.6031V43.375C52.7964 43.6113 52.885 43.8414 52.684 43.9552L31.3299 56.3436C31.1468 56.4536 30.9196 56.4536 30.7191 56.3436L25.2422 53.0746C25.0771 52.9787 24.8809 52.9443 24.7225 53.0329C23.1987 53.8966 22.9177 54.0114 21.4883 54.5069C21.1367 54.6294 20.6179 54.8421 21.6869 55.4412L28.8547 59.6814C29.539 60.0767 30.3153 60.2849 31.1056 60.285C31.9009 60.285 32.6798 60.0786 33.3662 59.6814L54.623 47.2902C56.0131 46.4803 56.6719 44.9826 56.6719 43.375V18.6031C56.6719 16.9954 56.0131 15.4963 54.6235 14.6927ZM37.7377 39.4496C32.0579 39.4496 30.8067 37.8826 30.3897 35.0582C30.3413 34.7541 30.0831 34.3903 29.7736 34.3903H26.9976C26.6542 34.3903 26.3781 34.8069 26.3781 35.1488C26.3781 38.7652 28.3442 43.1468 37.7381 43.1468C44.5383 43.1468 48.437 40.5046 48.437 35.8284C48.437 31.192 45.3046 29.9752 38.7098 29.1024C32.0438 28.2213 31.3667 27.7762 31.3667 26.2145C31.3667 24.9271 31.9402 23.21 36.8759 23.21C41.2862 23.21 42.9118 24.1564 43.5807 27.129C43.6378 27.4085 43.8931 27.609 44.1813 27.609H46.9684C47.1399 27.609 47.3036 27.5398 47.4237 27.4172C47.54 27.2855 47.6015 27.1203 47.586 26.943C47.1544 21.8242 43.7536 19.4386 36.8755 19.4386C30.7573 19.4386 27.1076 22.0223 27.1076 26.3531C27.1076 31.0505 30.7389 32.3487 36.612 32.9294C43.6378 33.6182 44.1842 34.6451 44.1842 36.027C44.1842 38.4271 42.2574 39.4496 37.7377 39.4496Z" fill="#83CD29"/>
</svg>
