<svg width="261" height="310" viewBox="0 0 261 310" fill="none" xmlns="http://www.w3.org/2000/svg">
<path d="M3.24896 1.62021C3.24896 2.51503 2.52166 3.24042 1.62448 3.24042C0.727305 3.24042 0 2.51503 0 1.62021C0 0.725392 0.727305 0 1.62448 0C2.52166 0 3.24896 0.725392 3.24896 1.62021Z" fill="white"/>
<path d="M18.4108 1.62021C18.4108 2.51503 17.6835 3.24042 16.7863 3.24042C15.8891 3.24042 15.1618 2.51503 15.1618 1.62021C15.1618 0.725392 15.8891 0 16.7863 0C17.6835 0 18.4108 0.725392 18.4108 1.62021Z" fill="white"/>
<path d="M48.7344 1.62021C48.7344 2.51503 48.0071 3.24042 47.11 3.24042C46.2128 3.24042 45.4855 2.51503 45.4855 1.62021C45.4855 0.725392 46.2128 0 47.11 0C48.0071 0 48.7344 0.725392 48.7344 1.62021Z" fill="white"/>
<path d="M33.5726 1.62021C33.5726 2.51503 32.8453 3.24042 31.9481 3.24042C31.051 3.24042 30.3237 2.51503 30.3237 1.62021C30.3237 0.725392 31.051 0 31.9481 0C32.8453 0 33.5726 0.725392 33.5726 1.62021Z" fill="white"/>
<path d="M124.544 1.62021C124.544 2.51503 123.816 3.24042 122.919 3.24042C122.022 3.24042 121.295 2.51503 121.295 1.62021C121.295 0.725392 122.022 0 122.919 0C123.816 0 124.544 0.725392 124.544 1.62021Z" fill="white"/>
<path d="M139.705 1.62021C139.705 2.51503 138.978 3.24042 138.081 3.24042C137.184 3.24042 136.456 2.51503 136.456 1.62021C136.456 0.725392 137.184 0 138.081 0C138.978 0 139.705 0.725392 139.705 1.62021Z" fill="white"/>
<path d="M170.029 1.62021C170.029 2.51503 169.302 3.24042 168.405 3.24042C167.507 3.24042 166.78 2.51503 166.78 1.62021C166.78 0.725392 167.507 0 168.405 0C169.302 0 170.029 0.725392 170.029 1.62021Z" fill="white"/>
<path d="M154.867 1.62021C154.867 2.51503 154.14 3.24042 153.243 3.24042C152.346 3.24042 151.618 2.51503 151.618 1.62021C151.618 0.725392 152.346 0 153.243 0C154.14 0 154.867 0.725392 154.867 1.62021Z" fill="white"/>
<path d="M185.191 1.62021C185.191 2.51503 184.464 3.24042 183.566 3.24042C182.669 3.24042 181.942 2.51503 181.942 1.62021C181.942 0.725392 182.669 0 183.566 0C184.464 0 185.191 0.725392 185.191 1.62021Z" fill="white"/>
<path d="M200.353 1.62021C200.353 2.51503 199.625 3.24042 198.728 3.24042C197.831 3.24042 197.104 2.51503 197.104 1.62021C197.104 0.725392 197.831 0 198.728 0C199.625 0 200.353 0.725392 200.353 1.62021Z" fill="white"/>
<path d="M230.676 1.62021C230.676 2.51503 229.949 3.24042 229.052 3.24042C228.155 3.24042 227.427 2.51503 227.427 1.62021C227.427 0.725392 228.155 0 229.052 0C229.949 0 230.676 0.725392 230.676 1.62021Z" fill="white"/>
<path d="M215.515 1.62021C215.515 2.51503 214.787 3.24042 213.89 3.24042C212.993 3.24042 212.266 2.51503 212.266 1.62021C212.266 0.725392 212.993 0 213.89 0C214.787 0 215.515 0.725392 215.515 1.62021Z" fill="white"/>
<path d="M245.838 1.62021C245.838 2.51503 245.111 3.24042 244.214 3.24042C243.317 3.24042 242.589 2.51503 242.589 1.62021C242.589 0.725392 243.317 0 244.214 0C245.111 0 245.838 0.725392 245.838 1.62021Z" fill="white"/>
<path d="M261 1.62021C261 2.51503 260.273 3.24042 259.376 3.24042C258.478 3.24042 257.751 2.51503 257.751 1.62021C257.751 0.725392 258.478 0 259.376 0C260.273 0 261 0.725392 261 1.62021Z" fill="white"/>
<path d="M63.8963 1.62021C63.8963 2.51503 63.169 3.24042 62.2718 3.24042C61.3746 3.24042 60.6473 2.51503 60.6473 1.62021C60.6473 0.725392 61.3746 0 62.2718 0C63.169 0 63.8963 0.725392 63.8963 1.62021Z" fill="white"/>
<path d="M79.0581 1.62021C79.0581 2.51503 78.3308 3.24042 77.4336 3.24042C76.5364 3.24042 75.8091 2.51503 75.8091 1.62021C75.8091 0.725392 76.5364 0 77.4336 0C78.3308 0 79.0581 0.725392 79.0581 1.62021Z" fill="white"/>
<path d="M109.382 1.62021C109.382 2.51503 108.654 3.24042 107.757 3.24042C106.86 3.24042 106.133 2.51503 106.133 1.62021C106.133 0.725392 106.86 0 107.757 0C108.654 0 109.382 0.725392 109.382 1.62021Z" fill="white"/>
<path d="M94.2199 1.62021C94.2199 2.51503 93.4926 3.24042 92.5954 3.24042C91.6983 3.24042 90.971 2.51503 90.971 1.62021C90.971 0.725392 91.6983 0 92.5954 0C93.4926 0 94.2199 0.725392 94.2199 1.62021Z" fill="white"/>
<path d="M3.24896 16.7422C3.24896 17.637 2.52166 18.3624 1.62448 18.3624C0.727305 18.3624 0 17.637 0 16.7422C0 15.8473 0.727305 15.122 1.62448 15.122C2.52166 15.122 3.24896 15.8473 3.24896 16.7422Z" fill="white"/>
<path d="M18.4108 16.7422C18.4108 17.637 17.6835 18.3624 16.7863 18.3624C15.8891 18.3624 15.1618 17.637 15.1618 16.7422C15.1618 15.8473 15.8891 15.122 16.7863 15.122C17.6835 15.122 18.4108 15.8473 18.4108 16.7422Z" fill="white"/>
<path d="M48.7344 16.7422C48.7344 17.637 48.0071 18.3624 47.11 18.3624C46.2128 18.3624 45.4855 17.637 45.4855 16.7422C45.4855 15.8473 46.2128 15.122 47.11 15.122C48.0071 15.122 48.7344 15.8473 48.7344 16.7422Z" fill="white"/>
<path d="M33.5726 16.7422C33.5726 17.637 32.8453 18.3624 31.9481 18.3624C31.051 18.3624 30.3237 17.637 30.3237 16.7422C30.3237 15.8473 31.051 15.122 31.9481 15.122C32.8453 15.122 33.5726 15.8473 33.5726 16.7422Z" fill="white"/>
<path d="M124.544 16.7422C124.544 17.637 123.816 18.3624 122.919 18.3624C122.022 18.3624 121.295 17.637 121.295 16.7422C121.295 15.8473 122.022 15.122 122.919 15.122C123.816 15.122 124.544 15.8473 124.544 16.7422Z" fill="white"/>
<path d="M139.705 16.7422C139.705 17.637 138.978 18.3624 138.081 18.3624C137.184 18.3624 136.456 17.637 136.456 16.7422C136.456 15.8473 137.184 15.122 138.081 15.122C138.978 15.122 139.705 15.8473 139.705 16.7422Z" fill="white"/>
<path d="M170.029 16.7422C170.029 17.637 169.302 18.3624 168.405 18.3624C167.507 18.3624 166.78 17.637 166.78 16.7422C166.78 15.8473 167.507 15.122 168.405 15.122C169.302 15.122 170.029 15.8473 170.029 16.7422Z" fill="white"/>
<path d="M154.867 16.7422C154.867 17.637 154.14 18.3624 153.243 18.3624C152.346 18.3624 151.618 17.637 151.618 16.7422C151.618 15.8473 152.346 15.122 153.243 15.122C154.14 15.122 154.867 15.8473 154.867 16.7422Z" fill="white"/>
<path d="M185.191 16.7422C185.191 17.637 184.464 18.3624 183.566 18.3624C182.669 18.3624 181.942 17.637 181.942 16.7422C181.942 15.8473 182.669 15.122 183.566 15.122C184.464 15.122 185.191 15.8473 185.191 16.7422Z" fill="white"/>
<path d="M200.353 16.7422C200.353 17.637 199.625 18.3624 198.728 18.3624C197.831 18.3624 197.104 17.637 197.104 16.7422C197.104 15.8473 197.831 15.122 198.728 15.122C199.625 15.122 200.353 15.8473 200.353 16.7422Z" fill="white"/>
<path d="M230.676 16.7422C230.676 17.637 229.949 18.3624 229.052 18.3624C228.155 18.3624 227.427 17.637 227.427 16.7422C227.427 15.8473 228.155 15.122 229.052 15.122C229.949 15.122 230.676 15.8473 230.676 16.7422Z" fill="white"/>
<path d="M215.515 16.7422C215.515 17.637 214.787 18.3624 213.89 18.3624C212.993 18.3624 212.266 17.637 212.266 16.7422C212.266 15.8473 212.993 15.122 213.89 15.122C214.787 15.122 215.515 15.8473 215.515 16.7422Z" fill="white"/>
<path d="M245.838 16.7422C245.838 17.637 245.111 18.3624 244.214 18.3624C243.317 18.3624 242.589 17.637 242.589 16.7422C242.589 15.8473 243.317 15.122 244.214 15.122C245.111 15.122 245.838 15.8473 245.838 16.7422Z" fill="white"/>
<path d="M261 16.7422C261 17.637 260.273 18.3624 259.376 18.3624C258.478 18.3624 257.751 17.637 257.751 16.7422C257.751 15.8473 258.478 15.122 259.376 15.122C260.273 15.122 261 15.8473 261 16.7422Z" fill="white"/>
<path d="M63.8963 16.7422C63.8963 17.637 63.169 18.3624 62.2718 18.3624C61.3746 18.3624 60.6473 17.637 60.6473 16.7422C60.6473 15.8473 61.3746 15.122 62.2718 15.122C63.169 15.122 63.8963 15.8473 63.8963 16.7422Z" fill="white"/>
<path d="M79.0581 16.7422C79.0581 17.637 78.3308 18.3624 77.4336 18.3624C76.5364 18.3624 75.8091 17.637 75.8091 16.7422C75.8091 15.8473 76.5364 15.122 77.4336 15.122C78.3308 15.122 79.0581 15.8473 79.0581 16.7422Z" fill="white"/>
<path d="M109.382 16.7422C109.382 17.637 108.654 18.3624 107.757 18.3624C106.86 18.3624 106.133 17.637 106.133 16.7422C106.133 15.8473 106.86 15.122 107.757 15.122C108.654 15.122 109.382 15.8473 109.382 16.7422Z" fill="white"/>
<path d="M94.2199 16.7422C94.2199 17.637 93.4926 18.3624 92.5954 18.3624C91.6983 18.3624 90.971 17.637 90.971 16.7422C90.971 15.8473 91.6983 15.122 92.5954 15.122C93.4926 15.122 94.2199 15.8473 94.2199 16.7422Z" fill="white"/>
<path d="M3.24896 31.8641C3.24896 32.7589 2.52166 33.4843 1.62448 33.4843C0.727305 33.4843 0 32.7589 0 31.8641C0 30.9693 0.727305 30.2439 1.62448 30.2439C2.52166 30.2439 3.24896 30.9693 3.24896 31.8641Z" fill="white"/>
<path d="M18.4108 31.8641C18.4108 32.7589 17.6835 33.4843 16.7863 33.4843C15.8891 33.4843 15.1618 32.7589 15.1618 31.8641C15.1618 30.9693 15.8891 30.2439 16.7863 30.2439C17.6835 30.2439 18.4108 30.9693 18.4108 31.8641Z" fill="white"/>
<path d="M48.7344 31.8641C48.7344 32.7589 48.0071 33.4843 47.11 33.4843C46.2128 33.4843 45.4855 32.7589 45.4855 31.8641C45.4855 30.9693 46.2128 30.2439 47.11 30.2439C48.0071 30.2439 48.7344 30.9693 48.7344 31.8641Z" fill="white"/>
<path d="M33.5726 31.8641C33.5726 32.7589 32.8453 33.4843 31.9481 33.4843C31.051 33.4843 30.3237 32.7589 30.3237 31.8641C30.3237 30.9693 31.051 30.2439 31.9481 30.2439C32.8453 30.2439 33.5726 30.9693 33.5726 31.8641Z" fill="white"/>
<path d="M124.544 31.8641C124.544 32.7589 123.816 33.4843 122.919 33.4843C122.022 33.4843 121.295 32.7589 121.295 31.8641C121.295 30.9693 122.022 30.2439 122.919 30.2439C123.816 30.2439 124.544 30.9693 124.544 31.8641Z" fill="white"/>
<path d="M139.705 31.8641C139.705 32.7589 138.978 33.4843 138.081 33.4843C137.184 33.4843 136.456 32.7589 136.456 31.8641C136.456 30.9693 137.184 30.2439 138.081 30.2439C138.978 30.2439 139.705 30.9693 139.705 31.8641Z" fill="white"/>
<path d="M170.029 31.8641C170.029 32.7589 169.302 33.4843 168.405 33.4843C167.507 33.4843 166.78 32.7589 166.78 31.8641C166.78 30.9693 167.507 30.2439 168.405 30.2439C169.302 30.2439 170.029 30.9693 170.029 31.8641Z" fill="white"/>
<path d="M154.867 31.8641C154.867 32.7589 154.14 33.4843 153.243 33.4843C152.346 33.4843 151.618 32.7589 151.618 31.8641C151.618 30.9693 152.346 30.2439 153.243 30.2439C154.14 30.2439 154.867 30.9693 154.867 31.8641Z" fill="white"/>
<path d="M185.191 31.8641C185.191 32.7589 184.464 33.4843 183.566 33.4843C182.669 33.4843 181.942 32.7589 181.942 31.8641C181.942 30.9693 182.669 30.2439 183.566 30.2439C184.464 30.2439 185.191 30.9693 185.191 31.8641Z" fill="white"/>
<path d="M200.353 31.8641C200.353 32.7589 199.625 33.4843 198.728 33.4843C197.831 33.4843 197.104 32.7589 197.104 31.8641C197.104 30.9693 197.831 30.2439 198.728 30.2439C199.625 30.2439 200.353 30.9693 200.353 31.8641Z" fill="white"/>
<path d="M230.676 31.8641C230.676 32.7589 229.949 33.4843 229.052 33.4843C228.155 33.4843 227.427 32.7589 227.427 31.8641C227.427 30.9693 228.155 30.2439 229.052 30.2439C229.949 30.2439 230.676 30.9693 230.676 31.8641Z" fill="white"/>
<path d="M215.515 31.8641C215.515 32.7589 214.787 33.4843 213.89 33.4843C212.993 33.4843 212.266 32.7589 212.266 31.8641C212.266 30.9693 212.993 30.2439 213.89 30.2439C214.787 30.2439 215.515 30.9693 215.515 31.8641Z" fill="white"/>
<path d="M245.838 31.8641C245.838 32.7589 245.111 33.4843 244.214 33.4843C243.317 33.4843 242.589 32.7589 242.589 31.8641C242.589 30.9693 243.317 30.2439 244.214 30.2439C245.111 30.2439 245.838 30.9693 245.838 31.8641Z" fill="white"/>
<path d="M261 31.8641C261 32.7589 260.273 33.4843 259.376 33.4843C258.478 33.4843 257.751 32.7589 257.751 31.8641C257.751 30.9693 258.478 30.2439 259.376 30.2439C260.273 30.2439 261 30.9693 261 31.8641Z" fill="white"/>
<path d="M63.8963 31.8641C63.8963 32.7589 63.169 33.4843 62.2718 33.4843C61.3746 33.4843 60.6473 32.7589 60.6473 31.8641C60.6473 30.9693 61.3746 30.2439 62.2718 30.2439C63.169 30.2439 63.8963 30.9693 63.8963 31.8641Z" fill="white"/>
<path d="M79.0581 31.8641C79.0581 32.7589 78.3308 33.4843 77.4336 33.4843C76.5364 33.4843 75.8091 32.7589 75.8091 31.8641C75.8091 30.9693 76.5364 30.2439 77.4336 30.2439C78.3308 30.2439 79.0581 30.9693 79.0581 31.8641Z" fill="white"/>
<path d="M109.382 31.8641C109.382 32.7589 108.654 33.4843 107.757 33.4843C106.86 33.4843 106.133 32.7589 106.133 31.8641C106.133 30.9693 106.86 30.2439 107.757 30.2439C108.654 30.2439 109.382 30.9693 109.382 31.8641Z" fill="white"/>
<path d="M94.2199 31.8641C94.2199 32.7589 93.4926 33.4843 92.5954 33.4843C91.6983 33.4843 90.971 32.7589 90.971 31.8641C90.971 30.9693 91.6983 30.2439 92.5954 30.2439C93.4926 30.2439 94.2199 30.9693 94.2199 31.8641Z" fill="white"/>
<path d="M3.24896 46.9861C3.24896 47.8809 2.52166 48.6063 1.62448 48.6063C0.727305 48.6063 0 47.8809 0 46.9861C0 46.0912 0.727305 45.3659 1.62448 45.3659C2.52166 45.3659 3.24896 46.0912 3.24896 46.9861Z" fill="white"/>
<path d="M18.4108 46.9861C18.4108 47.8809 17.6835 48.6063 16.7863 48.6063C15.8891 48.6063 15.1618 47.8809 15.1618 46.9861C15.1618 46.0912 15.8891 45.3659 16.7863 45.3659C17.6835 45.3659 18.4108 46.0912 18.4108 46.9861Z" fill="white"/>
<path d="M48.7344 46.9861C48.7344 47.8809 48.0071 48.6063 47.11 48.6063C46.2128 48.6063 45.4855 47.8809 45.4855 46.9861C45.4855 46.0912 46.2128 45.3659 47.11 45.3659C48.0071 45.3659 48.7344 46.0912 48.7344 46.9861Z" fill="white"/>
<path d="M33.5726 46.9861C33.5726 47.8809 32.8453 48.6063 31.9481 48.6063C31.051 48.6063 30.3237 47.8809 30.3237 46.9861C30.3237 46.0912 31.051 45.3659 31.9481 45.3659C32.8453 45.3659 33.5726 46.0912 33.5726 46.9861Z" fill="white"/>
<path d="M124.544 46.9861C124.544 47.8809 123.816 48.6063 122.919 48.6063C122.022 48.6063 121.295 47.8809 121.295 46.9861C121.295 46.0912 122.022 45.3659 122.919 45.3659C123.816 45.3659 124.544 46.0912 124.544 46.9861Z" fill="white"/>
<path d="M139.705 46.9861C139.705 47.8809 138.978 48.6063 138.081 48.6063C137.184 48.6063 136.456 47.8809 136.456 46.9861C136.456 46.0912 137.184 45.3659 138.081 45.3659C138.978 45.3659 139.705 46.0912 139.705 46.9861Z" fill="white"/>
<path d="M170.029 46.9861C170.029 47.8809 169.302 48.6063 168.405 48.6063C167.507 48.6063 166.78 47.8809 166.78 46.9861C166.78 46.0912 167.507 45.3659 168.405 45.3659C169.302 45.3659 170.029 46.0912 170.029 46.9861Z" fill="white"/>
<path d="M154.867 46.9861C154.867 47.8809 154.14 48.6063 153.243 48.6063C152.346 48.6063 151.618 47.8809 151.618 46.9861C151.618 46.0912 152.346 45.3659 153.243 45.3659C154.14 45.3659 154.867 46.0912 154.867 46.9861Z" fill="white"/>
<path d="M185.191 46.9861C185.191 47.8809 184.464 48.6063 183.566 48.6063C182.669 48.6063 181.942 47.8809 181.942 46.9861C181.942 46.0912 182.669 45.3659 183.566 45.3659C184.464 45.3659 185.191 46.0912 185.191 46.9861Z" fill="white"/>
<path d="M200.353 46.9861C200.353 47.8809 199.625 48.6063 198.728 48.6063C197.831 48.6063 197.104 47.8809 197.104 46.9861C197.104 46.0912 197.831 45.3659 198.728 45.3659C199.625 45.3659 200.353 46.0912 200.353 46.9861Z" fill="white"/>
<path d="M230.676 46.9861C230.676 47.8809 229.949 48.6063 229.052 48.6063C228.155 48.6063 227.427 47.8809 227.427 46.9861C227.427 46.0912 228.155 45.3659 229.052 45.3659C229.949 45.3659 230.676 46.0912 230.676 46.9861Z" fill="white"/>
<path d="M215.515 46.9861C215.515 47.8809 214.787 48.6063 213.89 48.6063C212.993 48.6063 212.266 47.8809 212.266 46.9861C212.266 46.0912 212.993 45.3659 213.89 45.3659C214.787 45.3659 215.515 46.0912 215.515 46.9861Z" fill="white"/>
<path d="M245.838 46.9861C245.838 47.8809 245.111 48.6063 244.214 48.6063C243.317 48.6063 242.589 47.8809 242.589 46.9861C242.589 46.0912 243.317 45.3659 244.214 45.3659C245.111 45.3659 245.838 46.0912 245.838 46.9861Z" fill="white"/>
<path d="M261 46.9861C261 47.8809 260.273 48.6063 259.376 48.6063C258.478 48.6063 257.751 47.8809 257.751 46.9861C257.751 46.0912 258.478 45.3659 259.376 45.3659C260.273 45.3659 261 46.0912 261 46.9861Z" fill="white"/>
<path d="M63.8963 46.9861C63.8963 47.8809 63.169 48.6063 62.2718 48.6063C61.3746 48.6063 60.6473 47.8809 60.6473 46.9861C60.6473 46.0912 61.3746 45.3659 62.2718 45.3659C63.169 45.3659 63.8963 46.0912 63.8963 46.9861Z" fill="white"/>
<path d="M79.0581 46.9861C79.0581 47.8809 78.3308 48.6063 77.4336 48.6063C76.5364 48.6063 75.8091 47.8809 75.8091 46.9861C75.8091 46.0912 76.5364 45.3659 77.4336 45.3659C78.3308 45.3659 79.0581 46.0912 79.0581 46.9861Z" fill="white"/>
<path d="M109.382 46.9861C109.382 47.8809 108.654 48.6063 107.757 48.6063C106.86 48.6063 106.133 47.8809 106.133 46.9861C106.133 46.0912 106.86 45.3659 107.757 45.3659C108.654 45.3659 109.382 46.0912 109.382 46.9861Z" fill="white"/>
<path d="M94.2199 46.9861C94.2199 47.8809 93.4926 48.6063 92.5954 48.6063C91.6983 48.6063 90.971 47.8809 90.971 46.9861C90.971 46.0912 91.6983 45.3659 92.5954 45.3659C93.4926 45.3659 94.2199 46.0912 94.2199 46.9861Z" fill="white"/>
<path d="M3.24896 63.1882C3.24896 64.083 2.52166 64.8084 1.62448 64.8084C0.727305 64.8084 0 64.083 0 63.1882C0 62.2933 0.727305 61.5679 1.62448 61.5679C2.52166 61.5679 3.24896 62.2933 3.24896 63.1882Z" fill="white"/>
<path d="M18.4108 63.1882C18.4108 64.083 17.6835 64.8084 16.7863 64.8084C15.8891 64.8084 15.1618 64.083 15.1618 63.1882C15.1618 62.2933 15.8891 61.5679 16.7863 61.5679C17.6835 61.5679 18.4108 62.2933 18.4108 63.1882Z" fill="white"/>
<path d="M48.7344 63.1882C48.7344 64.083 48.0071 64.8084 47.11 64.8084C46.2128 64.8084 45.4855 64.083 45.4855 63.1882C45.4855 62.2933 46.2128 61.5679 47.11 61.5679C48.0071 61.5679 48.7344 62.2933 48.7344 63.1882Z" fill="white"/>
<path d="M33.5726 63.1882C33.5726 64.083 32.8453 64.8084 31.9481 64.8084C31.051 64.8084 30.3237 64.083 30.3237 63.1882C30.3237 62.2933 31.051 61.5679 31.9481 61.5679C32.8453 61.5679 33.5726 62.2933 33.5726 63.1882Z" fill="white"/>
<path d="M124.544 63.1882C124.544 64.083 123.816 64.8084 122.919 64.8084C122.022 64.8084 121.295 64.083 121.295 63.1882C121.295 62.2933 122.022 61.5679 122.919 61.5679C123.816 61.5679 124.544 62.2933 124.544 63.1882Z" fill="white"/>
<path d="M139.705 63.1882C139.705 64.083 138.978 64.8084 138.081 64.8084C137.184 64.8084 136.456 64.083 136.456 63.1882C136.456 62.2933 137.184 61.5679 138.081 61.5679C138.978 61.5679 139.705 62.2933 139.705 63.1882Z" fill="white"/>
<path d="M170.029 63.1882C170.029 64.083 169.302 64.8084 168.405 64.8084C167.507 64.8084 166.78 64.083 166.78 63.1882C166.78 62.2933 167.507 61.5679 168.405 61.5679C169.302 61.5679 170.029 62.2933 170.029 63.1882Z" fill="white"/>
<path d="M154.867 63.1882C154.867 64.083 154.14 64.8084 153.243 64.8084C152.346 64.8084 151.618 64.083 151.618 63.1882C151.618 62.2933 152.346 61.5679 153.243 61.5679C154.14 61.5679 154.867 62.2933 154.867 63.1882Z" fill="white"/>
<path d="M185.191 63.1882C185.191 64.083 184.464 64.8084 183.566 64.8084C182.669 64.8084 181.942 64.083 181.942 63.1882C181.942 62.2933 182.669 61.5679 183.566 61.5679C184.464 61.5679 185.191 62.2933 185.191 63.1882Z" fill="white"/>
<path d="M200.353 63.1882C200.353 64.083 199.625 64.8084 198.728 64.8084C197.831 64.8084 197.104 64.083 197.104 63.1882C197.104 62.2933 197.831 61.5679 198.728 61.5679C199.625 61.5679 200.353 62.2933 200.353 63.1882Z" fill="white"/>
<path d="M230.676 63.1882C230.676 64.083 229.949 64.8084 229.052 64.8084C228.155 64.8084 227.427 64.083 227.427 63.1882C227.427 62.2933 228.155 61.5679 229.052 61.5679C229.949 61.5679 230.676 62.2933 230.676 63.1882Z" fill="white"/>
<path d="M215.515 63.1882C215.515 64.083 214.787 64.8084 213.89 64.8084C212.993 64.8084 212.266 64.083 212.266 63.1882C212.266 62.2933 212.993 61.5679 213.89 61.5679C214.787 61.5679 215.515 62.2933 215.515 63.1882Z" fill="white"/>
<path d="M245.838 63.1882C245.838 64.083 245.111 64.8084 244.214 64.8084C243.317 64.8084 242.589 64.083 242.589 63.1882C242.589 62.2933 243.317 61.5679 244.214 61.5679C245.111 61.5679 245.838 62.2933 245.838 63.1882Z" fill="white"/>
<path d="M261 63.1882C261 64.083 260.273 64.8084 259.376 64.8084C258.478 64.8084 257.751 64.083 257.751 63.1882C257.751 62.2933 258.478 61.5679 259.376 61.5679C260.273 61.5679 261 62.2933 261 63.1882Z" fill="white"/>
<path d="M63.8963 63.1882C63.8963 64.083 63.169 64.8084 62.2718 64.8084C61.3746 64.8084 60.6473 64.083 60.6473 63.1882C60.6473 62.2933 61.3746 61.5679 62.2718 61.5679C63.169 61.5679 63.8963 62.2933 63.8963 63.1882Z" fill="white"/>
<path d="M79.0581 63.1882C79.0581 64.083 78.3308 64.8084 77.4336 64.8084C76.5364 64.8084 75.8091 64.083 75.8091 63.1882C75.8091 62.2933 76.5364 61.5679 77.4336 61.5679C78.3308 61.5679 79.0581 62.2933 79.0581 63.1882Z" fill="white"/>
<path d="M109.382 63.1882C109.382 64.083 108.654 64.8084 107.757 64.8084C106.86 64.8084 106.133 64.083 106.133 63.1882C106.133 62.2933 106.86 61.5679 107.757 61.5679C108.654 61.5679 109.382 62.2933 109.382 63.1882Z" fill="white"/>
<path d="M94.2199 63.1882C94.2199 64.083 93.4926 64.8084 92.5954 64.8084C91.6983 64.8084 90.971 64.083 90.971 63.1882C90.971 62.2933 91.6983 61.5679 92.5954 61.5679C93.4926 61.5679 94.2199 62.2933 94.2199 63.1882Z" fill="white"/>
<path d="M3.24896 78.3101C3.24896 79.2049 2.52166 79.9303 1.62448 79.9303C0.727305 79.9303 0 79.2049 0 78.3101C0 77.4153 0.727305 76.6899 1.62448 76.6899C2.52166 76.6899 3.24896 77.4153 3.24896 78.3101Z" fill="white"/>
<path d="M18.4108 78.3101C18.4108 79.2049 17.6835 79.9303 16.7863 79.9303C15.8891 79.9303 15.1618 79.2049 15.1618 78.3101C15.1618 77.4153 15.8891 76.6899 16.7863 76.6899C17.6835 76.6899 18.4108 77.4153 18.4108 78.3101Z" fill="white"/>
<path d="M48.7344 78.3101C48.7344 79.2049 48.0071 79.9303 47.11 79.9303C46.2128 79.9303 45.4855 79.2049 45.4855 78.3101C45.4855 77.4153 46.2128 76.6899 47.11 76.6899C48.0071 76.6899 48.7344 77.4153 48.7344 78.3101Z" fill="white"/>
<path d="M33.5726 78.3101C33.5726 79.2049 32.8453 79.9303 31.9481 79.9303C31.051 79.9303 30.3237 79.2049 30.3237 78.3101C30.3237 77.4153 31.051 76.6899 31.9481 76.6899C32.8453 76.6899 33.5726 77.4153 33.5726 78.3101Z" fill="white"/>
<path d="M124.544 78.3101C124.544 79.2049 123.816 79.9303 122.919 79.9303C122.022 79.9303 121.295 79.2049 121.295 78.3101C121.295 77.4153 122.022 76.6899 122.919 76.6899C123.816 76.6899 124.544 77.4153 124.544 78.3101Z" fill="white"/>
<path d="M139.705 78.3101C139.705 79.2049 138.978 79.9303 138.081 79.9303C137.184 79.9303 136.456 79.2049 136.456 78.3101C136.456 77.4153 137.184 76.6899 138.081 76.6899C138.978 76.6899 139.705 77.4153 139.705 78.3101Z" fill="white"/>
<path d="M170.029 78.3101C170.029 79.2049 169.302 79.9303 168.405 79.9303C167.507 79.9303 166.78 79.2049 166.78 78.3101C166.78 77.4153 167.507 76.6899 168.405 76.6899C169.302 76.6899 170.029 77.4153 170.029 78.3101Z" fill="white"/>
<path d="M154.867 78.3101C154.867 79.2049 154.14 79.9303 153.243 79.9303C152.346 79.9303 151.618 79.2049 151.618 78.3101C151.618 77.4153 152.346 76.6899 153.243 76.6899C154.14 76.6899 154.867 77.4153 154.867 78.3101Z" fill="white"/>
<path d="M185.191 78.3101C185.191 79.2049 184.464 79.9303 183.566 79.9303C182.669 79.9303 181.942 79.2049 181.942 78.3101C181.942 77.4153 182.669 76.6899 183.566 76.6899C184.464 76.6899 185.191 77.4153 185.191 78.3101Z" fill="white"/>
<path d="M200.353 78.3101C200.353 79.2049 199.625 79.9303 198.728 79.9303C197.831 79.9303 197.104 79.2049 197.104 78.3101C197.104 77.4153 197.831 76.6899 198.728 76.6899C199.625 76.6899 200.353 77.4153 200.353 78.3101Z" fill="white"/>
<path d="M230.676 78.3101C230.676 79.2049 229.949 79.9303 229.052 79.9303C228.155 79.9303 227.427 79.2049 227.427 78.3101C227.427 77.4153 228.155 76.6899 229.052 76.6899C229.949 76.6899 230.676 77.4153 230.676 78.3101Z" fill="white"/>
<path d="M215.515 78.3101C215.515 79.2049 214.787 79.9303 213.89 79.9303C212.993 79.9303 212.266 79.2049 212.266 78.3101C212.266 77.4153 212.993 76.6899 213.89 76.6899C214.787 76.6899 215.515 77.4153 215.515 78.3101Z" fill="white"/>
<path d="M245.838 78.3101C245.838 79.2049 245.111 79.9303 244.214 79.9303C243.317 79.9303 242.589 79.2049 242.589 78.3101C242.589 77.4153 243.317 76.6899 244.214 76.6899C245.111 76.6899 245.838 77.4153 245.838 78.3101Z" fill="white"/>
<path d="M261 78.3101C261 79.2049 260.273 79.9303 259.376 79.9303C258.478 79.9303 257.751 79.2049 257.751 78.3101C257.751 77.4153 258.478 76.6899 259.376 76.6899C260.273 76.6899 261 77.4153 261 78.3101Z" fill="white"/>
<path d="M63.8963 78.3101C63.8963 79.2049 63.169 79.9303 62.2718 79.9303C61.3746 79.9303 60.6473 79.2049 60.6473 78.3101C60.6473 77.4153 61.3746 76.6899 62.2718 76.6899C63.169 76.6899 63.8963 77.4153 63.8963 78.3101Z" fill="white"/>
<path d="M79.0581 78.3101C79.0581 79.2049 78.3308 79.9303 77.4336 79.9303C76.5364 79.9303 75.8091 79.2049 75.8091 78.3101C75.8091 77.4153 76.5364 76.6899 77.4336 76.6899C78.3308 76.6899 79.0581 77.4153 79.0581 78.3101Z" fill="white"/>
<path d="M109.382 78.3101C109.382 79.2049 108.654 79.9303 107.757 79.9303C106.86 79.9303 106.133 79.2049 106.133 78.3101C106.133 77.4153 106.86 76.6899 107.757 76.6899C108.654 76.6899 109.382 77.4153 109.382 78.3101Z" fill="white"/>
<path d="M94.2199 78.3101C94.2199 79.2049 93.4926 79.9303 92.5954 79.9303C91.6983 79.9303 90.971 79.2049 90.971 78.3101C90.971 77.4153 91.6983 76.6899 92.5954 76.6899C93.4926 76.6899 94.2199 77.4153 94.2199 78.3101Z" fill="white"/>
<path d="M3.24896 108.554C3.24896 109.449 2.52166 110.174 1.62448 110.174C0.727305 110.174 0 109.449 0 108.554C0 107.659 0.727305 106.934 1.62448 106.934C2.52166 106.934 3.24896 107.659 3.24896 108.554Z" fill="white"/>
<path d="M18.4108 108.554C18.4108 109.449 17.6835 110.174 16.7863 110.174C15.8891 110.174 15.1618 109.449 15.1618 108.554C15.1618 107.659 15.8891 106.934 16.7863 106.934C17.6835 106.934 18.4108 107.659 18.4108 108.554Z" fill="white"/>
<path d="M48.7344 108.554C48.7344 109.449 48.0071 110.174 47.11 110.174C46.2128 110.174 45.4855 109.449 45.4855 108.554C45.4855 107.659 46.2128 106.934 47.11 106.934C48.0071 106.934 48.7344 107.659 48.7344 108.554Z" fill="white"/>
<path d="M33.5726 108.554C33.5726 109.449 32.8453 110.174 31.9481 110.174C31.051 110.174 30.3237 109.449 30.3237 108.554C30.3237 107.659 31.051 106.934 31.9481 106.934C32.8453 106.934 33.5726 107.659 33.5726 108.554Z" fill="white"/>
<path d="M124.544 108.554C124.544 109.449 123.816 110.174 122.919 110.174C122.022 110.174 121.295 109.449 121.295 108.554C121.295 107.659 122.022 106.934 122.919 106.934C123.816 106.934 124.544 107.659 124.544 108.554Z" fill="white"/>
<path d="M139.705 108.554C139.705 109.449 138.978 110.174 138.081 110.174C137.184 110.174 136.456 109.449 136.456 108.554C136.456 107.659 137.184 106.934 138.081 106.934C138.978 106.934 139.705 107.659 139.705 108.554Z" fill="white"/>
<path d="M170.029 108.554C170.029 109.449 169.302 110.174 168.405 110.174C167.507 110.174 166.78 109.449 166.78 108.554C166.78 107.659 167.507 106.934 168.405 106.934C169.302 106.934 170.029 107.659 170.029 108.554Z" fill="white"/>
<path d="M154.867 108.554C154.867 109.449 154.14 110.174 153.243 110.174C152.346 110.174 151.618 109.449 151.618 108.554C151.618 107.659 152.346 106.934 153.243 106.934C154.14 106.934 154.867 107.659 154.867 108.554Z" fill="white"/>
<path d="M185.191 108.554C185.191 109.449 184.464 110.174 183.566 110.174C182.669 110.174 181.942 109.449 181.942 108.554C181.942 107.659 182.669 106.934 183.566 106.934C184.464 106.934 185.191 107.659 185.191 108.554Z" fill="white"/>
<path d="M200.353 108.554C200.353 109.449 199.625 110.174 198.728 110.174C197.831 110.174 197.104 109.449 197.104 108.554C197.104 107.659 197.831 106.934 198.728 106.934C199.625 106.934 200.353 107.659 200.353 108.554Z" fill="white"/>
<path d="M230.676 108.554C230.676 109.449 229.949 110.174 229.052 110.174C228.155 110.174 227.427 109.449 227.427 108.554C227.427 107.659 228.155 106.934 229.052 106.934C229.949 106.934 230.676 107.659 230.676 108.554Z" fill="white"/>
<path d="M215.515 108.554C215.515 109.449 214.787 110.174 213.89 110.174C212.993 110.174 212.266 109.449 212.266 108.554C212.266 107.659 212.993 106.934 213.89 106.934C214.787 106.934 215.515 107.659 215.515 108.554Z" fill="white"/>
<path d="M245.838 108.554C245.838 109.449 245.111 110.174 244.214 110.174C243.317 110.174 242.589 109.449 242.589 108.554C242.589 107.659 243.317 106.934 244.214 106.934C245.111 106.934 245.838 107.659 245.838 108.554Z" fill="white"/>
<path d="M261 108.554C261 109.449 260.273 110.174 259.376 110.174C258.478 110.174 257.751 109.449 257.751 108.554C257.751 107.659 258.478 106.934 259.376 106.934C260.273 106.934 261 107.659 261 108.554Z" fill="white"/>
<path d="M63.8963 108.554C63.8963 109.449 63.169 110.174 62.2718 110.174C61.3746 110.174 60.6473 109.449 60.6473 108.554C60.6473 107.659 61.3746 106.934 62.2718 106.934C63.169 106.934 63.8963 107.659 63.8963 108.554Z" fill="white"/>
<path d="M79.0581 108.554C79.0581 109.449 78.3308 110.174 77.4336 110.174C76.5364 110.174 75.8091 109.449 75.8091 108.554C75.8091 107.659 76.5364 106.934 77.4336 106.934C78.3308 106.934 79.0581 107.659 79.0581 108.554Z" fill="white"/>
<path d="M109.382 108.554C109.382 109.449 108.654 110.174 107.757 110.174C106.86 110.174 106.133 109.449 106.133 108.554C106.133 107.659 106.86 106.934 107.757 106.934C108.654 106.934 109.382 107.659 109.382 108.554Z" fill="white"/>
<path d="M94.2199 108.554C94.2199 109.449 93.4926 110.174 92.5954 110.174C91.6983 110.174 90.971 109.449 90.971 108.554C90.971 107.659 91.6983 106.934 92.5954 106.934C93.4926 106.934 94.2199 107.659 94.2199 108.554Z" fill="white"/>
<path d="M3.24896 93.4321C3.24896 94.3269 2.52166 95.0523 1.62448 95.0523C0.727305 95.0523 0 94.3269 0 93.4321C0 92.5372 0.727305 91.8119 1.62448 91.8119C2.52166 91.8119 3.24896 92.5372 3.24896 93.4321Z" fill="white"/>
<path d="M18.4108 93.4321C18.4108 94.3269 17.6835 95.0523 16.7863 95.0523C15.8891 95.0523 15.1618 94.3269 15.1618 93.4321C15.1618 92.5372 15.8891 91.8119 16.7863 91.8119C17.6835 91.8119 18.4108 92.5372 18.4108 93.4321Z" fill="white"/>
<path d="M48.7344 93.4321C48.7344 94.3269 48.0071 95.0523 47.11 95.0523C46.2128 95.0523 45.4855 94.3269 45.4855 93.4321C45.4855 92.5372 46.2128 91.8119 47.11 91.8119C48.0071 91.8119 48.7344 92.5372 48.7344 93.4321Z" fill="white"/>
<path d="M33.5726 93.4321C33.5726 94.3269 32.8453 95.0523 31.9481 95.0523C31.051 95.0523 30.3237 94.3269 30.3237 93.4321C30.3237 92.5372 31.051 91.8119 31.9481 91.8119C32.8453 91.8119 33.5726 92.5372 33.5726 93.4321Z" fill="white"/>
<path d="M124.544 93.4321C124.544 94.3269 123.816 95.0523 122.919 95.0523C122.022 95.0523 121.295 94.3269 121.295 93.4321C121.295 92.5372 122.022 91.8119 122.919 91.8119C123.816 91.8119 124.544 92.5372 124.544 93.4321Z" fill="white"/>
<path d="M139.705 93.4321C139.705 94.3269 138.978 95.0523 138.081 95.0523C137.184 95.0523 136.456 94.3269 136.456 93.4321C136.456 92.5372 137.184 91.8119 138.081 91.8119C138.978 91.8119 139.705 92.5372 139.705 93.4321Z" fill="white"/>
<path d="M170.029 93.4321C170.029 94.3269 169.302 95.0523 168.405 95.0523C167.507 95.0523 166.78 94.3269 166.78 93.4321C166.78 92.5372 167.507 91.8119 168.405 91.8119C169.302 91.8119 170.029 92.5372 170.029 93.4321Z" fill="white"/>
<path d="M154.867 93.4321C154.867 94.3269 154.14 95.0523 153.243 95.0523C152.346 95.0523 151.618 94.3269 151.618 93.4321C151.618 92.5372 152.346 91.8119 153.243 91.8119C154.14 91.8119 154.867 92.5372 154.867 93.4321Z" fill="white"/>
<path d="M185.191 93.4321C185.191 94.3269 184.464 95.0523 183.566 95.0523C182.669 95.0523 181.942 94.3269 181.942 93.4321C181.942 92.5372 182.669 91.8119 183.566 91.8119C184.464 91.8119 185.191 92.5372 185.191 93.4321Z" fill="white"/>
<path d="M200.353 93.4321C200.353 94.3269 199.625 95.0523 198.728 95.0523C197.831 95.0523 197.104 94.3269 197.104 93.4321C197.104 92.5372 197.831 91.8119 198.728 91.8119C199.625 91.8119 200.353 92.5372 200.353 93.4321Z" fill="white"/>
<path d="M230.676 93.4321C230.676 94.3269 229.949 95.0523 229.052 95.0523C228.155 95.0523 227.427 94.3269 227.427 93.4321C227.427 92.5372 228.155 91.8119 229.052 91.8119C229.949 91.8119 230.676 92.5372 230.676 93.4321Z" fill="white"/>
<path d="M215.515 93.4321C215.515 94.3269 214.787 95.0523 213.89 95.0523C212.993 95.0523 212.266 94.3269 212.266 93.4321C212.266 92.5372 212.993 91.8119 213.89 91.8119C214.787 91.8119 215.515 92.5372 215.515 93.4321Z" fill="white"/>
<path d="M245.838 93.4321C245.838 94.3269 245.111 95.0523 244.214 95.0523C243.317 95.0523 242.589 94.3269 242.589 93.4321C242.589 92.5372 243.317 91.8119 244.214 91.8119C245.111 91.8119 245.838 92.5372 245.838 93.4321Z" fill="white"/>
<path d="M261 93.4321C261 94.3269 260.273 95.0523 259.376 95.0523C258.478 95.0523 257.751 94.3269 257.751 93.4321C257.751 92.5372 258.478 91.8119 259.376 91.8119C260.273 91.8119 261 92.5372 261 93.4321Z" fill="white"/>
<path d="M63.8963 93.4321C63.8963 94.3269 63.169 95.0523 62.2718 95.0523C61.3746 95.0523 60.6473 94.3269 60.6473 93.4321C60.6473 92.5372 61.3746 91.8119 62.2718 91.8119C63.169 91.8119 63.8963 92.5372 63.8963 93.4321Z" fill="white"/>
<path d="M79.0581 93.4321C79.0581 94.3269 78.3308 95.0523 77.4336 95.0523C76.5364 95.0523 75.8091 94.3269 75.8091 93.4321C75.8091 92.5372 76.5364 91.8119 77.4336 91.8119C78.3308 91.8119 79.0581 92.5372 79.0581 93.4321Z" fill="white"/>
<path d="M109.382 93.4321C109.382 94.3269 108.654 95.0523 107.757 95.0523C106.86 95.0523 106.133 94.3269 106.133 93.4321C106.133 92.5372 106.86 91.8119 107.757 91.8119C108.654 91.8119 109.382 92.5372 109.382 93.4321Z" fill="white"/>
<path d="M94.2199 93.4321C94.2199 94.3269 93.4926 95.0523 92.5954 95.0523C91.6983 95.0523 90.971 94.3269 90.971 93.4321C90.971 92.5372 91.6983 91.8119 92.5954 91.8119C93.4926 91.8119 94.2199 92.5372 94.2199 93.4321Z" fill="white"/>
<path d="M3.24896 123.676C3.24896 124.571 2.52166 125.296 1.62448 125.296C0.727305 125.296 0 124.571 0 123.676C0 122.781 0.727305 122.056 1.62448 122.056C2.52166 122.056 3.24896 122.781 3.24896 123.676Z" fill="white"/>
<path d="M18.4108 123.676C18.4108 124.571 17.6835 125.296 16.7863 125.296C15.8891 125.296 15.1618 124.571 15.1618 123.676C15.1618 122.781 15.8891 122.056 16.7863 122.056C17.6835 122.056 18.4108 122.781 18.4108 123.676Z" fill="white"/>
<path d="M48.7344 123.676C48.7344 124.571 48.0071 125.296 47.11 125.296C46.2128 125.296 45.4855 124.571 45.4855 123.676C45.4855 122.781 46.2128 122.056 47.11 122.056C48.0071 122.056 48.7344 122.781 48.7344 123.676Z" fill="white"/>
<path d="M33.5726 123.676C33.5726 124.571 32.8453 125.296 31.9481 125.296C31.051 125.296 30.3237 124.571 30.3237 123.676C30.3237 122.781 31.051 122.056 31.9481 122.056C32.8453 122.056 33.5726 122.781 33.5726 123.676Z" fill="white"/>
<path d="M124.544 123.676C124.544 124.571 123.816 125.296 122.919 125.296C122.022 125.296 121.295 124.571 121.295 123.676C121.295 122.781 122.022 122.056 122.919 122.056C123.816 122.056 124.544 122.781 124.544 123.676Z" fill="white"/>
<path d="M139.705 123.676C139.705 124.571 138.978 125.296 138.081 125.296C137.184 125.296 136.456 124.571 136.456 123.676C136.456 122.781 137.184 122.056 138.081 122.056C138.978 122.056 139.705 122.781 139.705 123.676Z" fill="white"/>
<path d="M170.029 123.676C170.029 124.571 169.302 125.296 168.405 125.296C167.507 125.296 166.78 124.571 166.78 123.676C166.78 122.781 167.507 122.056 168.405 122.056C169.302 122.056 170.029 122.781 170.029 123.676Z" fill="white"/>
<path d="M154.867 123.676C154.867 124.571 154.14 125.296 153.243 125.296C152.346 125.296 151.618 124.571 151.618 123.676C151.618 122.781 152.346 122.056 153.243 122.056C154.14 122.056 154.867 122.781 154.867 123.676Z" fill="white"/>
<path d="M185.191 123.676C185.191 124.571 184.464 125.296 183.566 125.296C182.669 125.296 181.942 124.571 181.942 123.676C181.942 122.781 182.669 122.056 183.566 122.056C184.464 122.056 185.191 122.781 185.191 123.676Z" fill="white"/>
<path d="M200.353 123.676C200.353 124.571 199.625 125.296 198.728 125.296C197.831 125.296 197.104 124.571 197.104 123.676C197.104 122.781 197.831 122.056 198.728 122.056C199.625 122.056 200.353 122.781 200.353 123.676Z" fill="white"/>
<path d="M230.676 123.676C230.676 124.571 229.949 125.296 229.052 125.296C228.155 125.296 227.427 124.571 227.427 123.676C227.427 122.781 228.155 122.056 229.052 122.056C229.949 122.056 230.676 122.781 230.676 123.676Z" fill="white"/>
<path d="M215.515 123.676C215.515 124.571 214.787 125.296 213.89 125.296C212.993 125.296 212.266 124.571 212.266 123.676C212.266 122.781 212.993 122.056 213.89 122.056C214.787 122.056 215.515 122.781 215.515 123.676Z" fill="white"/>
<path d="M245.838 123.676C245.838 124.571 245.111 125.296 244.214 125.296C243.317 125.296 242.589 124.571 242.589 123.676C242.589 122.781 243.317 122.056 244.214 122.056C245.111 122.056 245.838 122.781 245.838 123.676Z" fill="white"/>
<path d="M261 123.676C261 124.571 260.273 125.296 259.376 125.296C258.478 125.296 257.751 124.571 257.751 123.676C257.751 122.781 258.478 122.056 259.376 122.056C260.273 122.056 261 122.781 261 123.676Z" fill="white"/>
<path d="M63.8963 123.676C63.8963 124.571 63.169 125.296 62.2718 125.296C61.3746 125.296 60.6473 124.571 60.6473 123.676C60.6473 122.781 61.3746 122.056 62.2718 122.056C63.169 122.056 63.8963 122.781 63.8963 123.676Z" fill="white"/>
<path d="M79.0581 123.676C79.0581 124.571 78.3308 125.296 77.4336 125.296C76.5364 125.296 75.8091 124.571 75.8091 123.676C75.8091 122.781 76.5364 122.056 77.4336 122.056C78.3308 122.056 79.0581 122.781 79.0581 123.676Z" fill="white"/>
<path d="M109.382 123.676C109.382 124.571 108.654 125.296 107.757 125.296C106.86 125.296 106.133 124.571 106.133 123.676C106.133 122.781 106.86 122.056 107.757 122.056C108.654 122.056 109.382 122.781 109.382 123.676Z" fill="white"/>
<path d="M94.2199 123.676C94.2199 124.571 93.4926 125.296 92.5954 125.296C91.6983 125.296 90.971 124.571 90.971 123.676C90.971 122.781 91.6983 122.056 92.5954 122.056C93.4926 122.056 94.2199 122.781 94.2199 123.676Z" fill="white"/>
<path d="M3.24896 139.878C3.24896 140.773 2.52166 141.498 1.62448 141.498C0.727305 141.498 0 140.773 0 139.878C0 138.983 0.727305 138.258 1.62448 138.258C2.52166 138.258 3.24896 138.983 3.24896 139.878Z" fill="white"/>
<path d="M18.4108 139.878C18.4108 140.773 17.6835 141.498 16.7863 141.498C15.8891 141.498 15.1618 140.773 15.1618 139.878C15.1618 138.983 15.8891 138.258 16.7863 138.258C17.6835 138.258 18.4108 138.983 18.4108 139.878Z" fill="white"/>
<path d="M48.7344 139.878C48.7344 140.773 48.0071 141.498 47.11 141.498C46.2128 141.498 45.4855 140.773 45.4855 139.878C45.4855 138.983 46.2128 138.258 47.11 138.258C48.0071 138.258 48.7344 138.983 48.7344 139.878Z" fill="white"/>
<path d="M33.5726 139.878C33.5726 140.773 32.8453 141.498 31.9481 141.498C31.051 141.498 30.3237 140.773 30.3237 139.878C30.3237 138.983 31.051 138.258 31.9481 138.258C32.8453 138.258 33.5726 138.983 33.5726 139.878Z" fill="white"/>
<path d="M124.544 139.878C124.544 140.773 123.816 141.498 122.919 141.498C122.022 141.498 121.295 140.773 121.295 139.878C121.295 138.983 122.022 138.258 122.919 138.258C123.816 138.258 124.544 138.983 124.544 139.878Z" fill="white"/>
<path d="M139.705 139.878C139.705 140.773 138.978 141.498 138.081 141.498C137.184 141.498 136.456 140.773 136.456 139.878C136.456 138.983 137.184 138.258 138.081 138.258C138.978 138.258 139.705 138.983 139.705 139.878Z" fill="white"/>
<path d="M170.029 139.878C170.029 140.773 169.302 141.498 168.405 141.498C167.507 141.498 166.78 140.773 166.78 139.878C166.78 138.983 167.507 138.258 168.405 138.258C169.302 138.258 170.029 138.983 170.029 139.878Z" fill="white"/>
<path d="M154.867 139.878C154.867 140.773 154.14 141.498 153.243 141.498C152.346 141.498 151.618 140.773 151.618 139.878C151.618 138.983 152.346 138.258 153.243 138.258C154.14 138.258 154.867 138.983 154.867 139.878Z" fill="white"/>
<path d="M185.191 139.878C185.191 140.773 184.464 141.498 183.566 141.498C182.669 141.498 181.942 140.773 181.942 139.878C181.942 138.983 182.669 138.258 183.566 138.258C184.464 138.258 185.191 138.983 185.191 139.878Z" fill="white"/>
<path d="M200.353 139.878C200.353 140.773 199.625 141.498 198.728 141.498C197.831 141.498 197.104 140.773 197.104 139.878C197.104 138.983 197.831 138.258 198.728 138.258C199.625 138.258 200.353 138.983 200.353 139.878Z" fill="white"/>
<path d="M230.676 139.878C230.676 140.773 229.949 141.498 229.052 141.498C228.155 141.498 227.427 140.773 227.427 139.878C227.427 138.983 228.155 138.258 229.052 138.258C229.949 138.258 230.676 138.983 230.676 139.878Z" fill="white"/>
<path d="M215.515 139.878C215.515 140.773 214.787 141.498 213.89 141.498C212.993 141.498 212.266 140.773 212.266 139.878C212.266 138.983 212.993 138.258 213.89 138.258C214.787 138.258 215.515 138.983 215.515 139.878Z" fill="white"/>
<path d="M245.838 139.878C245.838 140.773 245.111 141.498 244.214 141.498C243.317 141.498 242.589 140.773 242.589 139.878C242.589 138.983 243.317 138.258 244.214 138.258C245.111 138.258 245.838 138.983 245.838 139.878Z" fill="white"/>
<path d="M261 139.878C261 140.773 260.273 141.498 259.376 141.498C258.478 141.498 257.751 140.773 257.751 139.878C257.751 138.983 258.478 138.258 259.376 138.258C260.273 138.258 261 138.983 261 139.878Z" fill="white"/>
<path d="M63.8963 139.878C63.8963 140.773 63.169 141.498 62.2718 141.498C61.3746 141.498 60.6473 140.773 60.6473 139.878C60.6473 138.983 61.3746 138.258 62.2718 138.258C63.169 138.258 63.8963 138.983 63.8963 139.878Z" fill="white"/>
<path d="M79.0581 139.878C79.0581 140.773 78.3308 141.498 77.4336 141.498C76.5364 141.498 75.8091 140.773 75.8091 139.878C75.8091 138.983 76.5364 138.258 77.4336 138.258C78.3308 138.258 79.0581 138.983 79.0581 139.878Z" fill="white"/>
<path d="M109.382 139.878C109.382 140.773 108.654 141.498 107.757 141.498C106.86 141.498 106.133 140.773 106.133 139.878C106.133 138.983 106.86 138.258 107.757 138.258C108.654 138.258 109.382 138.983 109.382 139.878Z" fill="white"/>
<path d="M94.2199 139.878C94.2199 140.773 93.4926 141.498 92.5954 141.498C91.6983 141.498 90.971 140.773 90.971 139.878C90.971 138.983 91.6983 138.258 92.5954 138.258C93.4926 138.258 94.2199 138.983 94.2199 139.878Z" fill="white"/>
<path d="M3.24896 155C3.24896 155.895 2.52166 156.62 1.62448 156.62C0.727305 156.62 0 155.895 0 155C0 154.105 0.727305 153.38 1.62448 153.38C2.52166 153.38 3.24896 154.105 3.24896 155Z" fill="white"/>
<path d="M18.4108 155C18.4108 155.895 17.6835 156.62 16.7863 156.62C15.8891 156.62 15.1618 155.895 15.1618 155C15.1618 154.105 15.8891 153.38 16.7863 153.38C17.6835 153.38 18.4108 154.105 18.4108 155Z" fill="white"/>
<path d="M48.7344 155C48.7344 155.895 48.0071 156.62 47.11 156.62C46.2128 156.62 45.4855 155.895 45.4855 155C45.4855 154.105 46.2128 153.38 47.11 153.38C48.0071 153.38 48.7344 154.105 48.7344 155Z" fill="white"/>
<path d="M33.5726 155C33.5726 155.895 32.8453 156.62 31.9481 156.62C31.051 156.62 30.3237 155.895 30.3237 155C30.3237 154.105 31.051 153.38 31.9481 153.38C32.8453 153.38 33.5726 154.105 33.5726 155Z" fill="white"/>
<path d="M124.544 155C124.544 155.895 123.816 156.62 122.919 156.62C122.022 156.62 121.295 155.895 121.295 155C121.295 154.105 122.022 153.38 122.919 153.38C123.816 153.38 124.544 154.105 124.544 155Z" fill="white"/>
<path d="M139.705 155C139.705 155.895 138.978 156.62 138.081 156.62C137.184 156.62 136.456 155.895 136.456 155C136.456 154.105 137.184 153.38 138.081 153.38C138.978 153.38 139.705 154.105 139.705 155Z" fill="white"/>
<path d="M170.029 155C170.029 155.895 169.302 156.62 168.405 156.62C167.507 156.62 166.78 155.895 166.78 155C166.78 154.105 167.507 153.38 168.405 153.38C169.302 153.38 170.029 154.105 170.029 155Z" fill="white"/>
<path d="M154.867 155C154.867 155.895 154.14 156.62 153.243 156.62C152.346 156.62 151.618 155.895 151.618 155C151.618 154.105 152.346 153.38 153.243 153.38C154.14 153.38 154.867 154.105 154.867 155Z" fill="white"/>
<path d="M185.191 155C185.191 155.895 184.464 156.62 183.566 156.62C182.669 156.62 181.942 155.895 181.942 155C181.942 154.105 182.669 153.38 183.566 153.38C184.464 153.38 185.191 154.105 185.191 155Z" fill="white"/>
<path d="M200.353 155C200.353 155.895 199.625 156.62 198.728 156.62C197.831 156.62 197.104 155.895 197.104 155C197.104 154.105 197.831 153.38 198.728 153.38C199.625 153.38 200.353 154.105 200.353 155Z" fill="white"/>
<path d="M230.676 155C230.676 155.895 229.949 156.62 229.052 156.62C228.155 156.62 227.427 155.895 227.427 155C227.427 154.105 228.155 153.38 229.052 153.38C229.949 153.38 230.676 154.105 230.676 155Z" fill="white"/>
<path d="M215.515 155C215.515 155.895 214.787 156.62 213.89 156.62C212.993 156.62 212.266 155.895 212.266 155C212.266 154.105 212.993 153.38 213.89 153.38C214.787 153.38 215.515 154.105 215.515 155Z" fill="white"/>
<path d="M245.838 155C245.838 155.895 245.111 156.62 244.214 156.62C243.317 156.62 242.589 155.895 242.589 155C242.589 154.105 243.317 153.38 244.214 153.38C245.111 153.38 245.838 154.105 245.838 155Z" fill="white"/>
<path d="M261 155C261 155.895 260.273 156.62 259.376 156.62C258.478 156.62 257.751 155.895 257.751 155C257.751 154.105 258.478 153.38 259.376 153.38C260.273 153.38 261 154.105 261 155Z" fill="white"/>
<path d="M63.8963 155C63.8963 155.895 63.169 156.62 62.2718 156.62C61.3746 156.62 60.6473 155.895 60.6473 155C60.6473 154.105 61.3746 153.38 62.2718 153.38C63.169 153.38 63.8963 154.105 63.8963 155Z" fill="white"/>
<path d="M79.0581 155C79.0581 155.895 78.3308 156.62 77.4336 156.62C76.5364 156.62 75.8091 155.895 75.8091 155C75.8091 154.105 76.5364 153.38 77.4336 153.38C78.3308 153.38 79.0581 154.105 79.0581 155Z" fill="white"/>
<path d="M109.382 155C109.382 155.895 108.654 156.62 107.757 156.62C106.86 156.62 106.133 155.895 106.133 155C106.133 154.105 106.86 153.38 107.757 153.38C108.654 153.38 109.382 154.105 109.382 155Z" fill="white"/>
<path d="M94.2199 155C94.2199 155.895 93.4926 156.62 92.5954 156.62C91.6983 156.62 90.971 155.895 90.971 155C90.971 154.105 91.6983 153.38 92.5954 153.38C93.4926 153.38 94.2199 154.105 94.2199 155Z" fill="white"/>
<path d="M3.24896 170.122C3.24896 171.017 2.52166 171.742 1.62448 171.742C0.727305 171.742 0 171.017 0 170.122C0 169.227 0.727305 168.502 1.62448 168.502C2.52166 168.502 3.24896 169.227 3.24896 170.122Z" fill="white"/>
<path d="M18.4108 170.122C18.4108 171.017 17.6835 171.742 16.7863 171.742C15.8891 171.742 15.1618 171.017 15.1618 170.122C15.1618 169.227 15.8891 168.502 16.7863 168.502C17.6835 168.502 18.4108 169.227 18.4108 170.122Z" fill="white"/>
<path d="M48.7344 170.122C48.7344 171.017 48.0071 171.742 47.11 171.742C46.2128 171.742 45.4855 171.017 45.4855 170.122C45.4855 169.227 46.2128 168.502 47.11 168.502C48.0071 168.502 48.7344 169.227 48.7344 170.122Z" fill="white"/>
<path d="M33.5726 170.122C33.5726 171.017 32.8453 171.742 31.9481 171.742C31.051 171.742 30.3237 171.017 30.3237 170.122C30.3237 169.227 31.051 168.502 31.9481 168.502C32.8453 168.502 33.5726 169.227 33.5726 170.122Z" fill="white"/>
<path d="M124.544 170.122C124.544 171.017 123.816 171.742 122.919 171.742C122.022 171.742 121.295 171.017 121.295 170.122C121.295 169.227 122.022 168.502 122.919 168.502C123.816 168.502 124.544 169.227 124.544 170.122Z" fill="white"/>
<path d="M139.705 170.122C139.705 171.017 138.978 171.742 138.081 171.742C137.184 171.742 136.456 171.017 136.456 170.122C136.456 169.227 137.184 168.502 138.081 168.502C138.978 168.502 139.705 169.227 139.705 170.122Z" fill="white"/>
<path d="M170.029 170.122C170.029 171.017 169.302 171.742 168.405 171.742C167.507 171.742 166.78 171.017 166.78 170.122C166.78 169.227 167.507 168.502 168.405 168.502C169.302 168.502 170.029 169.227 170.029 170.122Z" fill="white"/>
<path d="M154.867 170.122C154.867 171.017 154.14 171.742 153.243 171.742C152.346 171.742 151.618 171.017 151.618 170.122C151.618 169.227 152.346 168.502 153.243 168.502C154.14 168.502 154.867 169.227 154.867 170.122Z" fill="white"/>
<path d="M185.191 170.122C185.191 171.017 184.464 171.742 183.566 171.742C182.669 171.742 181.942 171.017 181.942 170.122C181.942 169.227 182.669 168.502 183.566 168.502C184.464 168.502 185.191 169.227 185.191 170.122Z" fill="white"/>
<path d="M200.353 170.122C200.353 171.017 199.625 171.742 198.728 171.742C197.831 171.742 197.104 171.017 197.104 170.122C197.104 169.227 197.831 168.502 198.728 168.502C199.625 168.502 200.353 169.227 200.353 170.122Z" fill="white"/>
<path d="M230.676 170.122C230.676 171.017 229.949 171.742 229.052 171.742C228.155 171.742 227.427 171.017 227.427 170.122C227.427 169.227 228.155 168.502 229.052 168.502C229.949 168.502 230.676 169.227 230.676 170.122Z" fill="white"/>
<path d="M215.515 170.122C215.515 171.017 214.787 171.742 213.89 171.742C212.993 171.742 212.266 171.017 212.266 170.122C212.266 169.227 212.993 168.502 213.89 168.502C214.787 168.502 215.515 169.227 215.515 170.122Z" fill="white"/>
<path d="M245.838 170.122C245.838 171.017 245.111 171.742 244.214 171.742C243.317 171.742 242.589 171.017 242.589 170.122C242.589 169.227 243.317 168.502 244.214 168.502C245.111 168.502 245.838 169.227 245.838 170.122Z" fill="white"/>
<path d="M261 170.122C261 171.017 260.273 171.742 259.376 171.742C258.478 171.742 257.751 171.017 257.751 170.122C257.751 169.227 258.478 168.502 259.376 168.502C260.273 168.502 261 169.227 261 170.122Z" fill="white"/>
<path d="M63.8963 170.122C63.8963 171.017 63.169 171.742 62.2718 171.742C61.3746 171.742 60.6473 171.017 60.6473 170.122C60.6473 169.227 61.3746 168.502 62.2718 168.502C63.169 168.502 63.8963 169.227 63.8963 170.122Z" fill="white"/>
<path d="M79.0581 170.122C79.0581 171.017 78.3308 171.742 77.4336 171.742C76.5364 171.742 75.8091 171.017 75.8091 170.122C75.8091 169.227 76.5364 168.502 77.4336 168.502C78.3308 168.502 79.0581 169.227 79.0581 170.122Z" fill="white"/>
<path d="M109.382 170.122C109.382 171.017 108.654 171.742 107.757 171.742C106.86 171.742 106.133 171.017 106.133 170.122C106.133 169.227 106.86 168.502 107.757 168.502C108.654 168.502 109.382 169.227 109.382 170.122Z" fill="white"/>
<path d="M94.2199 170.122C94.2199 171.017 93.4926 171.742 92.5954 171.742C91.6983 171.742 90.971 171.017 90.971 170.122C90.971 169.227 91.6983 168.502 92.5954 168.502C93.4926 168.502 94.2199 169.227 94.2199 170.122Z" fill="white"/>
<path d="M3.24896 185.244C3.24896 186.139 2.52166 186.864 1.62448 186.864C0.727305 186.864 0 186.139 0 185.244C0 184.349 0.727305 183.624 1.62448 183.624C2.52166 183.624 3.24896 184.349 3.24896 185.244Z" fill="white"/>
<path d="M18.4108 185.244C18.4108 186.139 17.6835 186.864 16.7863 186.864C15.8891 186.864 15.1618 186.139 15.1618 185.244C15.1618 184.349 15.8891 183.624 16.7863 183.624C17.6835 183.624 18.4108 184.349 18.4108 185.244Z" fill="white"/>
<path d="M48.7344 185.244C48.7344 186.139 48.0071 186.864 47.11 186.864C46.2128 186.864 45.4855 186.139 45.4855 185.244C45.4855 184.349 46.2128 183.624 47.11 183.624C48.0071 183.624 48.7344 184.349 48.7344 185.244Z" fill="white"/>
<path d="M33.5726 185.244C33.5726 186.139 32.8453 186.864 31.9481 186.864C31.051 186.864 30.3237 186.139 30.3237 185.244C30.3237 184.349 31.051 183.624 31.9481 183.624C32.8453 183.624 33.5726 184.349 33.5726 185.244Z" fill="white"/>
<path d="M124.544 185.244C124.544 186.139 123.816 186.864 122.919 186.864C122.022 186.864 121.295 186.139 121.295 185.244C121.295 184.349 122.022 183.624 122.919 183.624C123.816 183.624 124.544 184.349 124.544 185.244Z" fill="white"/>
<path d="M139.705 185.244C139.705 186.139 138.978 186.864 138.081 186.864C137.184 186.864 136.456 186.139 136.456 185.244C136.456 184.349 137.184 183.624 138.081 183.624C138.978 183.624 139.705 184.349 139.705 185.244Z" fill="white"/>
<path d="M170.029 185.244C170.029 186.139 169.302 186.864 168.405 186.864C167.507 186.864 166.78 186.139 166.78 185.244C166.78 184.349 167.507 183.624 168.405 183.624C169.302 183.624 170.029 184.349 170.029 185.244Z" fill="white"/>
<path d="M154.867 185.244C154.867 186.139 154.14 186.864 153.243 186.864C152.346 186.864 151.618 186.139 151.618 185.244C151.618 184.349 152.346 183.624 153.243 183.624C154.14 183.624 154.867 184.349 154.867 185.244Z" fill="white"/>
<path d="M185.191 185.244C185.191 186.139 184.464 186.864 183.566 186.864C182.669 186.864 181.942 186.139 181.942 185.244C181.942 184.349 182.669 183.624 183.566 183.624C184.464 183.624 185.191 184.349 185.191 185.244Z" fill="white"/>
<path d="M200.353 185.244C200.353 186.139 199.625 186.864 198.728 186.864C197.831 186.864 197.104 186.139 197.104 185.244C197.104 184.349 197.831 183.624 198.728 183.624C199.625 183.624 200.353 184.349 200.353 185.244Z" fill="white"/>
<path d="M230.676 185.244C230.676 186.139 229.949 186.864 229.052 186.864C228.155 186.864 227.427 186.139 227.427 185.244C227.427 184.349 228.155 183.624 229.052 183.624C229.949 183.624 230.676 184.349 230.676 185.244Z" fill="white"/>
<path d="M215.515 185.244C215.515 186.139 214.787 186.864 213.89 186.864C212.993 186.864 212.266 186.139 212.266 185.244C212.266 184.349 212.993 183.624 213.89 183.624C214.787 183.624 215.515 184.349 215.515 185.244Z" fill="white"/>
<path d="M245.838 185.244C245.838 186.139 245.111 186.864 244.214 186.864C243.317 186.864 242.589 186.139 242.589 185.244C242.589 184.349 243.317 183.624 244.214 183.624C245.111 183.624 245.838 184.349 245.838 185.244Z" fill="white"/>
<path d="M261 185.244C261 186.139 260.273 186.864 259.376 186.864C258.478 186.864 257.751 186.139 257.751 185.244C257.751 184.349 258.478 183.624 259.376 183.624C260.273 183.624 261 184.349 261 185.244Z" fill="white"/>
<path d="M63.8963 185.244C63.8963 186.139 63.169 186.864 62.2718 186.864C61.3746 186.864 60.6473 186.139 60.6473 185.244C60.6473 184.349 61.3746 183.624 62.2718 183.624C63.169 183.624 63.8963 184.349 63.8963 185.244Z" fill="white"/>
<path d="M79.0581 185.244C79.0581 186.139 78.3308 186.864 77.4336 186.864C76.5364 186.864 75.8091 186.139 75.8091 185.244C75.8091 184.349 76.5364 183.624 77.4336 183.624C78.3308 183.624 79.0581 184.349 79.0581 185.244Z" fill="white"/>
<path d="M109.382 185.244C109.382 186.139 108.654 186.864 107.757 186.864C106.86 186.864 106.133 186.139 106.133 185.244C106.133 184.349 106.86 183.624 107.757 183.624C108.654 183.624 109.382 184.349 109.382 185.244Z" fill="white"/>
<path d="M94.2199 185.244C94.2199 186.139 93.4926 186.864 92.5954 186.864C91.6983 186.864 90.971 186.139 90.971 185.244C90.971 184.349 91.6983 183.624 92.5954 183.624C93.4926 183.624 94.2199 184.349 94.2199 185.244Z" fill="white"/>
<path d="M3.24896 200.366C3.24896 201.261 2.52166 201.986 1.62448 201.986C0.727305 201.986 0 201.261 0 200.366C0 199.471 0.727305 198.746 1.62448 198.746C2.52166 198.746 3.24896 199.471 3.24896 200.366Z" fill="white"/>
<path d="M18.4108 200.366C18.4108 201.261 17.6835 201.986 16.7863 201.986C15.8891 201.986 15.1618 201.261 15.1618 200.366C15.1618 199.471 15.8891 198.746 16.7863 198.746C17.6835 198.746 18.4108 199.471 18.4108 200.366Z" fill="white"/>
<path d="M48.7344 200.366C48.7344 201.261 48.0071 201.986 47.11 201.986C46.2128 201.986 45.4855 201.261 45.4855 200.366C45.4855 199.471 46.2128 198.746 47.11 198.746C48.0071 198.746 48.7344 199.471 48.7344 200.366Z" fill="white"/>
<path d="M33.5726 200.366C33.5726 201.261 32.8453 201.986 31.9481 201.986C31.051 201.986 30.3237 201.261 30.3237 200.366C30.3237 199.471 31.051 198.746 31.9481 198.746C32.8453 198.746 33.5726 199.471 33.5726 200.366Z" fill="white"/>
<path d="M124.544 200.366C124.544 201.261 123.816 201.986 122.919 201.986C122.022 201.986 121.295 201.261 121.295 200.366C121.295 199.471 122.022 198.746 122.919 198.746C123.816 198.746 124.544 199.471 124.544 200.366Z" fill="white"/>
<path d="M139.705 200.366C139.705 201.261 138.978 201.986 138.081 201.986C137.184 201.986 136.456 201.261 136.456 200.366C136.456 199.471 137.184 198.746 138.081 198.746C138.978 198.746 139.705 199.471 139.705 200.366Z" fill="white"/>
<path d="M170.029 200.366C170.029 201.261 169.302 201.986 168.405 201.986C167.507 201.986 166.78 201.261 166.78 200.366C166.78 199.471 167.507 198.746 168.405 198.746C169.302 198.746 170.029 199.471 170.029 200.366Z" fill="white"/>
<path d="M154.867 200.366C154.867 201.261 154.14 201.986 153.243 201.986C152.346 201.986 151.618 201.261 151.618 200.366C151.618 199.471 152.346 198.746 153.243 198.746C154.14 198.746 154.867 199.471 154.867 200.366Z" fill="white"/>
<path d="M185.191 200.366C185.191 201.261 184.464 201.986 183.566 201.986C182.669 201.986 181.942 201.261 181.942 200.366C181.942 199.471 182.669 198.746 183.566 198.746C184.464 198.746 185.191 199.471 185.191 200.366Z" fill="white"/>
<path d="M200.353 200.366C200.353 201.261 199.625 201.986 198.728 201.986C197.831 201.986 197.104 201.261 197.104 200.366C197.104 199.471 197.831 198.746 198.728 198.746C199.625 198.746 200.353 199.471 200.353 200.366Z" fill="white"/>
<path d="M230.676 200.366C230.676 201.261 229.949 201.986 229.052 201.986C228.155 201.986 227.427 201.261 227.427 200.366C227.427 199.471 228.155 198.746 229.052 198.746C229.949 198.746 230.676 199.471 230.676 200.366Z" fill="white"/>
<path d="M215.515 200.366C215.515 201.261 214.787 201.986 213.89 201.986C212.993 201.986 212.266 201.261 212.266 200.366C212.266 199.471 212.993 198.746 213.89 198.746C214.787 198.746 215.515 199.471 215.515 200.366Z" fill="white"/>
<path d="M245.838 200.366C245.838 201.261 245.111 201.986 244.214 201.986C243.317 201.986 242.589 201.261 242.589 200.366C242.589 199.471 243.317 198.746 244.214 198.746C245.111 198.746 245.838 199.471 245.838 200.366Z" fill="white"/>
<path d="M261 200.366C261 201.261 260.273 201.986 259.376 201.986C258.478 201.986 257.751 201.261 257.751 200.366C257.751 199.471 258.478 198.746 259.376 198.746C260.273 198.746 261 199.471 261 200.366Z" fill="white"/>
<path d="M63.8963 200.366C63.8963 201.261 63.169 201.986 62.2718 201.986C61.3746 201.986 60.6473 201.261 60.6473 200.366C60.6473 199.471 61.3746 198.746 62.2718 198.746C63.169 198.746 63.8963 199.471 63.8963 200.366Z" fill="white"/>
<path d="M79.0581 200.366C79.0581 201.261 78.3308 201.986 77.4336 201.986C76.5364 201.986 75.8091 201.261 75.8091 200.366C75.8091 199.471 76.5364 198.746 77.4336 198.746C78.3308 198.746 79.0581 199.471 79.0581 200.366Z" fill="white"/>
<path d="M109.382 200.366C109.382 201.261 108.654 201.986 107.757 201.986C106.86 201.986 106.133 201.261 106.133 200.366C106.133 199.471 106.86 198.746 107.757 198.746C108.654 198.746 109.382 199.471 109.382 200.366Z" fill="white"/>
<path d="M94.2199 200.366C94.2199 201.261 93.4926 201.986 92.5954 201.986C91.6983 201.986 90.971 201.261 90.971 200.366C90.971 199.471 91.6983 198.746 92.5954 198.746C93.4926 198.746 94.2199 199.471 94.2199 200.366Z" fill="white"/>
<path d="M3.24896 216.568C3.24896 217.463 2.52166 218.188 1.62448 218.188C0.727305 218.188 0 217.463 0 216.568C0 215.673 0.727305 214.948 1.62448 214.948C2.52166 214.948 3.24896 215.673 3.24896 216.568Z" fill="white"/>
<path d="M18.4108 216.568C18.4108 217.463 17.6835 218.188 16.7863 218.188C15.8891 218.188 15.1618 217.463 15.1618 216.568C15.1618 215.673 15.8891 214.948 16.7863 214.948C17.6835 214.948 18.4108 215.673 18.4108 216.568Z" fill="white"/>
<path d="M48.7344 216.568C48.7344 217.463 48.0071 218.188 47.11 218.188C46.2128 218.188 45.4855 217.463 45.4855 216.568C45.4855 215.673 46.2128 214.948 47.11 214.948C48.0071 214.948 48.7344 215.673 48.7344 216.568Z" fill="white"/>
<path d="M33.5726 216.568C33.5726 217.463 32.8453 218.188 31.9481 218.188C31.051 218.188 30.3237 217.463 30.3237 216.568C30.3237 215.673 31.051 214.948 31.9481 214.948C32.8453 214.948 33.5726 215.673 33.5726 216.568Z" fill="white"/>
<path d="M124.544 216.568C124.544 217.463 123.816 218.188 122.919 218.188C122.022 218.188 121.295 217.463 121.295 216.568C121.295 215.673 122.022 214.948 122.919 214.948C123.816 214.948 124.544 215.673 124.544 216.568Z" fill="white"/>
<path d="M139.705 216.568C139.705 217.463 138.978 218.188 138.081 218.188C137.184 218.188 136.456 217.463 136.456 216.568C136.456 215.673 137.184 214.948 138.081 214.948C138.978 214.948 139.705 215.673 139.705 216.568Z" fill="white"/>
<path d="M170.029 216.568C170.029 217.463 169.302 218.188 168.405 218.188C167.507 218.188 166.78 217.463 166.78 216.568C166.78 215.673 167.507 214.948 168.405 214.948C169.302 214.948 170.029 215.673 170.029 216.568Z" fill="white"/>
<path d="M154.867 216.568C154.867 217.463 154.14 218.188 153.243 218.188C152.346 218.188 151.618 217.463 151.618 216.568C151.618 215.673 152.346 214.948 153.243 214.948C154.14 214.948 154.867 215.673 154.867 216.568Z" fill="white"/>
<path d="M185.191 216.568C185.191 217.463 184.464 218.188 183.566 218.188C182.669 218.188 181.942 217.463 181.942 216.568C181.942 215.673 182.669 214.948 183.566 214.948C184.464 214.948 185.191 215.673 185.191 216.568Z" fill="white"/>
<path d="M200.353 216.568C200.353 217.463 199.625 218.188 198.728 218.188C197.831 218.188 197.104 217.463 197.104 216.568C197.104 215.673 197.831 214.948 198.728 214.948C199.625 214.948 200.353 215.673 200.353 216.568Z" fill="white"/>
<path d="M230.676 216.568C230.676 217.463 229.949 218.188 229.052 218.188C228.155 218.188 227.427 217.463 227.427 216.568C227.427 215.673 228.155 214.948 229.052 214.948C229.949 214.948 230.676 215.673 230.676 216.568Z" fill="white"/>
<path d="M215.515 216.568C215.515 217.463 214.787 218.188 213.89 218.188C212.993 218.188 212.266 217.463 212.266 216.568C212.266 215.673 212.993 214.948 213.89 214.948C214.787 214.948 215.515 215.673 215.515 216.568Z" fill="white"/>
<path d="M245.838 216.568C245.838 217.463 245.111 218.188 244.214 218.188C243.317 218.188 242.589 217.463 242.589 216.568C242.589 215.673 243.317 214.948 244.214 214.948C245.111 214.948 245.838 215.673 245.838 216.568Z" fill="white"/>
<path d="M261 216.568C261 217.463 260.273 218.188 259.376 218.188C258.478 218.188 257.751 217.463 257.751 216.568C257.751 215.673 258.478 214.948 259.376 214.948C260.273 214.948 261 215.673 261 216.568Z" fill="white"/>
<path d="M63.8963 216.568C63.8963 217.463 63.169 218.188 62.2718 218.188C61.3746 218.188 60.6473 217.463 60.6473 216.568C60.6473 215.673 61.3746 214.948 62.2718 214.948C63.169 214.948 63.8963 215.673 63.8963 216.568Z" fill="white"/>
<path d="M79.0581 216.568C79.0581 217.463 78.3308 218.188 77.4336 218.188C76.5364 218.188 75.8091 217.463 75.8091 216.568C75.8091 215.673 76.5364 214.948 77.4336 214.948C78.3308 214.948 79.0581 215.673 79.0581 216.568Z" fill="white"/>
<path d="M109.382 216.568C109.382 217.463 108.654 218.188 107.757 218.188C106.86 218.188 106.133 217.463 106.133 216.568C106.133 215.673 106.86 214.948 107.757 214.948C108.654 214.948 109.382 215.673 109.382 216.568Z" fill="white"/>
<path d="M94.2199 216.568C94.2199 217.463 93.4926 218.188 92.5954 218.188C91.6983 218.188 90.971 217.463 90.971 216.568C90.971 215.673 91.6983 214.948 92.5954 214.948C93.4926 214.948 94.2199 215.673 94.2199 216.568Z" fill="white"/>
<path d="M3.24896 231.69C3.24896 232.585 2.52166 233.31 1.62448 233.31C0.727305 233.31 0 232.585 0 231.69C0 230.795 0.727305 230.07 1.62448 230.07C2.52166 230.07 3.24896 230.795 3.24896 231.69Z" fill="white"/>
<path d="M18.4108 231.69C18.4108 232.585 17.6835 233.31 16.7863 233.31C15.8891 233.31 15.1618 232.585 15.1618 231.69C15.1618 230.795 15.8891 230.07 16.7863 230.07C17.6835 230.07 18.4108 230.795 18.4108 231.69Z" fill="white"/>
<path d="M48.7344 231.69C48.7344 232.585 48.0071 233.31 47.11 233.31C46.2128 233.31 45.4855 232.585 45.4855 231.69C45.4855 230.795 46.2128 230.07 47.11 230.07C48.0071 230.07 48.7344 230.795 48.7344 231.69Z" fill="white"/>
<path d="M33.5726 231.69C33.5726 232.585 32.8453 233.31 31.9481 233.31C31.051 233.31 30.3237 232.585 30.3237 231.69C30.3237 230.795 31.051 230.07 31.9481 230.07C32.8453 230.07 33.5726 230.795 33.5726 231.69Z" fill="white"/>
<path d="M124.544 231.69C124.544 232.585 123.816 233.31 122.919 233.31C122.022 233.31 121.295 232.585 121.295 231.69C121.295 230.795 122.022 230.07 122.919 230.07C123.816 230.07 124.544 230.795 124.544 231.69Z" fill="white"/>
<path d="M139.705 231.69C139.705 232.585 138.978 233.31 138.081 233.31C137.184 233.31 136.456 232.585 136.456 231.69C136.456 230.795 137.184 230.07 138.081 230.07C138.978 230.07 139.705 230.795 139.705 231.69Z" fill="white"/>
<path d="M170.029 231.69C170.029 232.585 169.302 233.31 168.405 233.31C167.507 233.31 166.78 232.585 166.78 231.69C166.78 230.795 167.507 230.07 168.405 230.07C169.302 230.07 170.029 230.795 170.029 231.69Z" fill="white"/>
<path d="M154.867 231.69C154.867 232.585 154.14 233.31 153.243 233.31C152.346 233.31 151.618 232.585 151.618 231.69C151.618 230.795 152.346 230.07 153.243 230.07C154.14 230.07 154.867 230.795 154.867 231.69Z" fill="white"/>
<path d="M185.191 231.69C185.191 232.585 184.464 233.31 183.566 233.31C182.669 233.31 181.942 232.585 181.942 231.69C181.942 230.795 182.669 230.07 183.566 230.07C184.464 230.07 185.191 230.795 185.191 231.69Z" fill="white"/>
<path d="M200.353 231.69C200.353 232.585 199.625 233.31 198.728 233.31C197.831 233.31 197.104 232.585 197.104 231.69C197.104 230.795 197.831 230.07 198.728 230.07C199.625 230.07 200.353 230.795 200.353 231.69Z" fill="white"/>
<path d="M230.676 231.69C230.676 232.585 229.949 233.31 229.052 233.31C228.155 233.31 227.427 232.585 227.427 231.69C227.427 230.795 228.155 230.07 229.052 230.07C229.949 230.07 230.676 230.795 230.676 231.69Z" fill="white"/>
<path d="M215.515 231.69C215.515 232.585 214.787 233.31 213.89 233.31C212.993 233.31 212.266 232.585 212.266 231.69C212.266 230.795 212.993 230.07 213.89 230.07C214.787 230.07 215.515 230.795 215.515 231.69Z" fill="white"/>
<path d="M245.838 231.69C245.838 232.585 245.111 233.31 244.214 233.31C243.317 233.31 242.589 232.585 242.589 231.69C242.589 230.795 243.317 230.07 244.214 230.07C245.111 230.07 245.838 230.795 245.838 231.69Z" fill="white"/>
<path d="M261 231.69C261 232.585 260.273 233.31 259.376 233.31C258.478 233.31 257.751 232.585 257.751 231.69C257.751 230.795 258.478 230.07 259.376 230.07C260.273 230.07 261 230.795 261 231.69Z" fill="white"/>
<path d="M63.8963 231.69C63.8963 232.585 63.169 233.31 62.2718 233.31C61.3746 233.31 60.6473 232.585 60.6473 231.69C60.6473 230.795 61.3746 230.07 62.2718 230.07C63.169 230.07 63.8963 230.795 63.8963 231.69Z" fill="white"/>
<path d="M79.0581 231.69C79.0581 232.585 78.3308 233.31 77.4336 233.31C76.5364 233.31 75.8091 232.585 75.8091 231.69C75.8091 230.795 76.5364 230.07 77.4336 230.07C78.3308 230.07 79.0581 230.795 79.0581 231.69Z" fill="white"/>
<path d="M109.382 231.69C109.382 232.585 108.654 233.31 107.757 233.31C106.86 233.31 106.133 232.585 106.133 231.69C106.133 230.795 106.86 230.07 107.757 230.07C108.654 230.07 109.382 230.795 109.382 231.69Z" fill="white"/>
<path d="M94.2199 231.69C94.2199 232.585 93.4926 233.31 92.5954 233.31C91.6983 233.31 90.971 232.585 90.971 231.69C90.971 230.795 91.6983 230.07 92.5954 230.07C93.4926 230.07 94.2199 230.795 94.2199 231.69Z" fill="white"/>
<path d="M3.24896 261.934C3.24896 262.829 2.52166 263.554 1.62448 263.554C0.727305 263.554 0 262.829 0 261.934C0 261.039 0.727305 260.314 1.62448 260.314C2.52166 260.314 3.24896 261.039 3.24896 261.934Z" fill="white"/>
<path d="M18.4108 261.934C18.4108 262.829 17.6835 263.554 16.7863 263.554C15.8891 263.554 15.1618 262.829 15.1618 261.934C15.1618 261.039 15.8891 260.314 16.7863 260.314C17.6835 260.314 18.4108 261.039 18.4108 261.934Z" fill="white"/>
<path d="M48.7344 261.934C48.7344 262.829 48.0071 263.554 47.11 263.554C46.2128 263.554 45.4855 262.829 45.4855 261.934C45.4855 261.039 46.2128 260.314 47.11 260.314C48.0071 260.314 48.7344 261.039 48.7344 261.934Z" fill="white"/>
<path d="M33.5726 261.934C33.5726 262.829 32.8453 263.554 31.9481 263.554C31.051 263.554 30.3237 262.829 30.3237 261.934C30.3237 261.039 31.051 260.314 31.9481 260.314C32.8453 260.314 33.5726 261.039 33.5726 261.934Z" fill="white"/>
<path d="M124.544 261.934C124.544 262.829 123.816 263.554 122.919 263.554C122.022 263.554 121.295 262.829 121.295 261.934C121.295 261.039 122.022 260.314 122.919 260.314C123.816 260.314 124.544 261.039 124.544 261.934Z" fill="white"/>
<path d="M139.705 261.934C139.705 262.829 138.978 263.554 138.081 263.554C137.184 263.554 136.456 262.829 136.456 261.934C136.456 261.039 137.184 260.314 138.081 260.314C138.978 260.314 139.705 261.039 139.705 261.934Z" fill="white"/>
<path d="M170.029 261.934C170.029 262.829 169.302 263.554 168.405 263.554C167.507 263.554 166.78 262.829 166.78 261.934C166.78 261.039 167.507 260.314 168.405 260.314C169.302 260.314 170.029 261.039 170.029 261.934Z" fill="white"/>
<path d="M154.867 261.934C154.867 262.829 154.14 263.554 153.243 263.554C152.346 263.554 151.618 262.829 151.618 261.934C151.618 261.039 152.346 260.314 153.243 260.314C154.14 260.314 154.867 261.039 154.867 261.934Z" fill="white"/>
<path d="M185.191 261.934C185.191 262.829 184.464 263.554 183.566 263.554C182.669 263.554 181.942 262.829 181.942 261.934C181.942 261.039 182.669 260.314 183.566 260.314C184.464 260.314 185.191 261.039 185.191 261.934Z" fill="white"/>
<path d="M200.353 261.934C200.353 262.829 199.625 263.554 198.728 263.554C197.831 263.554 197.104 262.829 197.104 261.934C197.104 261.039 197.831 260.314 198.728 260.314C199.625 260.314 200.353 261.039 200.353 261.934Z" fill="white"/>
<path d="M230.676 261.934C230.676 262.829 229.949 263.554 229.052 263.554C228.155 263.554 227.427 262.829 227.427 261.934C227.427 261.039 228.155 260.314 229.052 260.314C229.949 260.314 230.676 261.039 230.676 261.934Z" fill="white"/>
<path d="M215.515 261.934C215.515 262.829 214.787 263.554 213.89 263.554C212.993 263.554 212.266 262.829 212.266 261.934C212.266 261.039 212.993 260.314 213.89 260.314C214.787 260.314 215.515 261.039 215.515 261.934Z" fill="white"/>
<path d="M245.838 261.934C245.838 262.829 245.111 263.554 244.214 263.554C243.317 263.554 242.589 262.829 242.589 261.934C242.589 261.039 243.317 260.314 244.214 260.314C245.111 260.314 245.838 261.039 245.838 261.934Z" fill="white"/>
<path d="M261 261.934C261 262.829 260.273 263.554 259.376 263.554C258.478 263.554 257.751 262.829 257.751 261.934C257.751 261.039 258.478 260.314 259.376 260.314C260.273 260.314 261 261.039 261 261.934Z" fill="white"/>
<path d="M63.8963 261.934C63.8963 262.829 63.169 263.554 62.2718 263.554C61.3746 263.554 60.6473 262.829 60.6473 261.934C60.6473 261.039 61.3746 260.314 62.2718 260.314C63.169 260.314 63.8963 261.039 63.8963 261.934Z" fill="white"/>
<path d="M79.0581 261.934C79.0581 262.829 78.3308 263.554 77.4336 263.554C76.5364 263.554 75.8091 262.829 75.8091 261.934C75.8091 261.039 76.5364 260.314 77.4336 260.314C78.3308 260.314 79.0581 261.039 79.0581 261.934Z" fill="white"/>
<path d="M109.382 261.934C109.382 262.829 108.654 263.554 107.757 263.554C106.86 263.554 106.133 262.829 106.133 261.934C106.133 261.039 106.86 260.314 107.757 260.314C108.654 260.314 109.382 261.039 109.382 261.934Z" fill="white"/>
<path d="M94.2199 261.934C94.2199 262.829 93.4926 263.554 92.5954 263.554C91.6983 263.554 90.971 262.829 90.971 261.934C90.971 261.039 91.6983 260.314 92.5954 260.314C93.4926 260.314 94.2199 261.039 94.2199 261.934Z" fill="white"/>
<path d="M3.24896 246.812C3.24896 247.707 2.52166 248.432 1.62448 248.432C0.727305 248.432 0 247.707 0 246.812C0 245.917 0.727305 245.192 1.62448 245.192C2.52166 245.192 3.24896 245.917 3.24896 246.812Z" fill="white"/>
<path d="M18.4108 246.812C18.4108 247.707 17.6835 248.432 16.7863 248.432C15.8891 248.432 15.1618 247.707 15.1618 246.812C15.1618 245.917 15.8891 245.192 16.7863 245.192C17.6835 245.192 18.4108 245.917 18.4108 246.812Z" fill="white"/>
<path d="M48.7344 246.812C48.7344 247.707 48.0071 248.432 47.11 248.432C46.2128 248.432 45.4855 247.707 45.4855 246.812C45.4855 245.917 46.2128 245.192 47.11 245.192C48.0071 245.192 48.7344 245.917 48.7344 246.812Z" fill="white"/>
<path d="M33.5726 246.812C33.5726 247.707 32.8453 248.432 31.9481 248.432C31.051 248.432 30.3237 247.707 30.3237 246.812C30.3237 245.917 31.051 245.192 31.9481 245.192C32.8453 245.192 33.5726 245.917 33.5726 246.812Z" fill="white"/>
<path d="M124.544 246.812C124.544 247.707 123.816 248.432 122.919 248.432C122.022 248.432 121.295 247.707 121.295 246.812C121.295 245.917 122.022 245.192 122.919 245.192C123.816 245.192 124.544 245.917 124.544 246.812Z" fill="white"/>
<path d="M139.705 246.812C139.705 247.707 138.978 248.432 138.081 248.432C137.184 248.432 136.456 247.707 136.456 246.812C136.456 245.917 137.184 245.192 138.081 245.192C138.978 245.192 139.705 245.917 139.705 246.812Z" fill="white"/>
<path d="M170.029 246.812C170.029 247.707 169.302 248.432 168.405 248.432C167.507 248.432 166.78 247.707 166.78 246.812C166.78 245.917 167.507 245.192 168.405 245.192C169.302 245.192 170.029 245.917 170.029 246.812Z" fill="white"/>
<path d="M154.867 246.812C154.867 247.707 154.14 248.432 153.243 248.432C152.346 248.432 151.618 247.707 151.618 246.812C151.618 245.917 152.346 245.192 153.243 245.192C154.14 245.192 154.867 245.917 154.867 246.812Z" fill="white"/>
<path d="M185.191 246.812C185.191 247.707 184.464 248.432 183.566 248.432C182.669 248.432 181.942 247.707 181.942 246.812C181.942 245.917 182.669 245.192 183.566 245.192C184.464 245.192 185.191 245.917 185.191 246.812Z" fill="white"/>
<path d="M200.353 246.812C200.353 247.707 199.625 248.432 198.728 248.432C197.831 248.432 197.104 247.707 197.104 246.812C197.104 245.917 197.831 245.192 198.728 245.192C199.625 245.192 200.353 245.917 200.353 246.812Z" fill="white"/>
<path d="M230.676 246.812C230.676 247.707 229.949 248.432 229.052 248.432C228.155 248.432 227.427 247.707 227.427 246.812C227.427 245.917 228.155 245.192 229.052 245.192C229.949 245.192 230.676 245.917 230.676 246.812Z" fill="white"/>
<path d="M215.515 246.812C215.515 247.707 214.787 248.432 213.89 248.432C212.993 248.432 212.266 247.707 212.266 246.812C212.266 245.917 212.993 245.192 213.89 245.192C214.787 245.192 215.515 245.917 215.515 246.812Z" fill="white"/>
<path d="M245.838 246.812C245.838 247.707 245.111 248.432 244.214 248.432C243.317 248.432 242.589 247.707 242.589 246.812C242.589 245.917 243.317 245.192 244.214 245.192C245.111 245.192 245.838 245.917 245.838 246.812Z" fill="white"/>
<path d="M261 246.812C261 247.707 260.273 248.432 259.376 248.432C258.478 248.432 257.751 247.707 257.751 246.812C257.751 245.917 258.478 245.192 259.376 245.192C260.273 245.192 261 245.917 261 246.812Z" fill="white"/>
<path d="M63.8963 246.812C63.8963 247.707 63.169 248.432 62.2718 248.432C61.3746 248.432 60.6473 247.707 60.6473 246.812C60.6473 245.917 61.3746 245.192 62.2718 245.192C63.169 245.192 63.8963 245.917 63.8963 246.812Z" fill="white"/>
<path d="M79.0581 246.812C79.0581 247.707 78.3308 248.432 77.4336 248.432C76.5364 248.432 75.8091 247.707 75.8091 246.812C75.8091 245.917 76.5364 245.192 77.4336 245.192C78.3308 245.192 79.0581 245.917 79.0581 246.812Z" fill="white"/>
<path d="M109.382 246.812C109.382 247.707 108.654 248.432 107.757 248.432C106.86 248.432 106.133 247.707 106.133 246.812C106.133 245.917 106.86 245.192 107.757 245.192C108.654 245.192 109.382 245.917 109.382 246.812Z" fill="white"/>
<path d="M94.2199 246.812C94.2199 247.707 93.4926 248.432 92.5954 248.432C91.6983 248.432 90.971 247.707 90.971 246.812C90.971 245.917 91.6983 245.192 92.5954 245.192C93.4926 245.192 94.2199 245.917 94.2199 246.812Z" fill="white"/>
<path d="M3.24896 277.056C3.24896 277.951 2.52166 278.676 1.62448 278.676C0.727305 278.676 0 277.951 0 277.056C0 276.161 0.727305 275.436 1.62448 275.436C2.52166 275.436 3.24896 276.161 3.24896 277.056Z" fill="white"/>
<path d="M18.4108 277.056C18.4108 277.951 17.6835 278.676 16.7863 278.676C15.8891 278.676 15.1618 277.951 15.1618 277.056C15.1618 276.161 15.8891 275.436 16.7863 275.436C17.6835 275.436 18.4108 276.161 18.4108 277.056Z" fill="white"/>
<path d="M48.7344 277.056C48.7344 277.951 48.0071 278.676 47.11 278.676C46.2128 278.676 45.4855 277.951 45.4855 277.056C45.4855 276.161 46.2128 275.436 47.11 275.436C48.0071 275.436 48.7344 276.161 48.7344 277.056Z" fill="white"/>
<path d="M33.5726 277.056C33.5726 277.951 32.8453 278.676 31.9481 278.676C31.051 278.676 30.3237 277.951 30.3237 277.056C30.3237 276.161 31.051 275.436 31.9481 275.436C32.8453 275.436 33.5726 276.161 33.5726 277.056Z" fill="white"/>
<path d="M124.544 277.056C124.544 277.951 123.816 278.676 122.919 278.676C122.022 278.676 121.295 277.951 121.295 277.056C121.295 276.161 122.022 275.436 122.919 275.436C123.816 275.436 124.544 276.161 124.544 277.056Z" fill="white"/>
<path d="M139.705 277.056C139.705 277.951 138.978 278.676 138.081 278.676C137.184 278.676 136.456 277.951 136.456 277.056C136.456 276.161 137.184 275.436 138.081 275.436C138.978 275.436 139.705 276.161 139.705 277.056Z" fill="white"/>
<path d="M170.029 277.056C170.029 277.951 169.302 278.676 168.405 278.676C167.507 278.676 166.78 277.951 166.78 277.056C166.78 276.161 167.507 275.436 168.405 275.436C169.302 275.436 170.029 276.161 170.029 277.056Z" fill="white"/>
<path d="M154.867 277.056C154.867 277.951 154.14 278.676 153.243 278.676C152.346 278.676 151.618 277.951 151.618 277.056C151.618 276.161 152.346 275.436 153.243 275.436C154.14 275.436 154.867 276.161 154.867 277.056Z" fill="white"/>
<path d="M185.191 277.056C185.191 277.951 184.464 278.676 183.566 278.676C182.669 278.676 181.942 277.951 181.942 277.056C181.942 276.161 182.669 275.436 183.566 275.436C184.464 275.436 185.191 276.161 185.191 277.056Z" fill="white"/>
<path d="M200.353 277.056C200.353 277.951 199.625 278.676 198.728 278.676C197.831 278.676 197.104 277.951 197.104 277.056C197.104 276.161 197.831 275.436 198.728 275.436C199.625 275.436 200.353 276.161 200.353 277.056Z" fill="white"/>
<path d="M230.676 277.056C230.676 277.951 229.949 278.676 229.052 278.676C228.155 278.676 227.427 277.951 227.427 277.056C227.427 276.161 228.155 275.436 229.052 275.436C229.949 275.436 230.676 276.161 230.676 277.056Z" fill="white"/>
<path d="M215.515 277.056C215.515 277.951 214.787 278.676 213.89 278.676C212.993 278.676 212.266 277.951 212.266 277.056C212.266 276.161 212.993 275.436 213.89 275.436C214.787 275.436 215.515 276.161 215.515 277.056Z" fill="white"/>
<path d="M245.838 277.056C245.838 277.951 245.111 278.676 244.214 278.676C243.317 278.676 242.589 277.951 242.589 277.056C242.589 276.161 243.317 275.436 244.214 275.436C245.111 275.436 245.838 276.161 245.838 277.056Z" fill="white"/>
<path d="M261 277.056C261 277.951 260.273 278.676 259.376 278.676C258.478 278.676 257.751 277.951 257.751 277.056C257.751 276.161 258.478 275.436 259.376 275.436C260.273 275.436 261 276.161 261 277.056Z" fill="white"/>
<path d="M63.8963 277.056C63.8963 277.951 63.169 278.676 62.2718 278.676C61.3746 278.676 60.6473 277.951 60.6473 277.056C60.6473 276.161 61.3746 275.436 62.2718 275.436C63.169 275.436 63.8963 276.161 63.8963 277.056Z" fill="white"/>
<path d="M79.0581 277.056C79.0581 277.951 78.3308 278.676 77.4336 278.676C76.5364 278.676 75.8091 277.951 75.8091 277.056C75.8091 276.161 76.5364 275.436 77.4336 275.436C78.3308 275.436 79.0581 276.161 79.0581 277.056Z" fill="white"/>
<path d="M109.382 277.056C109.382 277.951 108.654 278.676 107.757 278.676C106.86 278.676 106.133 277.951 106.133 277.056C106.133 276.161 106.86 275.436 107.757 275.436C108.654 275.436 109.382 276.161 109.382 277.056Z" fill="white"/>
<path d="M94.2199 277.056C94.2199 277.951 93.4926 278.676 92.5954 278.676C91.6983 278.676 90.971 277.951 90.971 277.056C90.971 276.161 91.6983 275.436 92.5954 275.436C93.4926 275.436 94.2199 276.161 94.2199 277.056Z" fill="white"/>
<path d="M3.24896 293.258C3.24896 294.153 2.52166 294.878 1.62448 294.878C0.727305 294.878 0 294.153 0 293.258C0 292.363 0.727305 291.638 1.62448 291.638C2.52166 291.638 3.24896 292.363 3.24896 293.258Z" fill="white"/>
<path d="M18.4108 293.258C18.4108 294.153 17.6835 294.878 16.7863 294.878C15.8891 294.878 15.1618 294.153 15.1618 293.258C15.1618 292.363 15.8891 291.638 16.7863 291.638C17.6835 291.638 18.4108 292.363 18.4108 293.258Z" fill="white"/>
<path d="M48.7344 293.258C48.7344 294.153 48.0071 294.878 47.11 294.878C46.2128 294.878 45.4855 294.153 45.4855 293.258C45.4855 292.363 46.2128 291.638 47.11 291.638C48.0071 291.638 48.7344 292.363 48.7344 293.258Z" fill="white"/>
<path d="M33.5726 293.258C33.5726 294.153 32.8453 294.878 31.9481 294.878C31.051 294.878 30.3237 294.153 30.3237 293.258C30.3237 292.363 31.051 291.638 31.9481 291.638C32.8453 291.638 33.5726 292.363 33.5726 293.258Z" fill="white"/>
<path d="M124.544 293.258C124.544 294.153 123.816 294.878 122.919 294.878C122.022 294.878 121.295 294.153 121.295 293.258C121.295 292.363 122.022 291.638 122.919 291.638C123.816 291.638 124.544 292.363 124.544 293.258Z" fill="white"/>
<path d="M139.705 293.258C139.705 294.153 138.978 294.878 138.081 294.878C137.184 294.878 136.456 294.153 136.456 293.258C136.456 292.363 137.184 291.638 138.081 291.638C138.978 291.638 139.705 292.363 139.705 293.258Z" fill="white"/>
<path d="M170.029 293.258C170.029 294.153 169.302 294.878 168.405 294.878C167.507 294.878 166.78 294.153 166.78 293.258C166.78 292.363 167.507 291.638 168.405 291.638C169.302 291.638 170.029 292.363 170.029 293.258Z" fill="white"/>
<path d="M154.867 293.258C154.867 294.153 154.14 294.878 153.243 294.878C152.346 294.878 151.618 294.153 151.618 293.258C151.618 292.363 152.346 291.638 153.243 291.638C154.14 291.638 154.867 292.363 154.867 293.258Z" fill="white"/>
<path d="M185.191 293.258C185.191 294.153 184.464 294.878 183.566 294.878C182.669 294.878 181.942 294.153 181.942 293.258C181.942 292.363 182.669 291.638 183.566 291.638C184.464 291.638 185.191 292.363 185.191 293.258Z" fill="white"/>
<path d="M200.353 293.258C200.353 294.153 199.625 294.878 198.728 294.878C197.831 294.878 197.104 294.153 197.104 293.258C197.104 292.363 197.831 291.638 198.728 291.638C199.625 291.638 200.353 292.363 200.353 293.258Z" fill="white"/>
<path d="M230.676 293.258C230.676 294.153 229.949 294.878 229.052 294.878C228.155 294.878 227.427 294.153 227.427 293.258C227.427 292.363 228.155 291.638 229.052 291.638C229.949 291.638 230.676 292.363 230.676 293.258Z" fill="white"/>
<path d="M215.515 293.258C215.515 294.153 214.787 294.878 213.89 294.878C212.993 294.878 212.266 294.153 212.266 293.258C212.266 292.363 212.993 291.638 213.89 291.638C214.787 291.638 215.515 292.363 215.515 293.258Z" fill="white"/>
<path d="M245.838 293.258C245.838 294.153 245.111 294.878 244.214 294.878C243.317 294.878 242.589 294.153 242.589 293.258C242.589 292.363 243.317 291.638 244.214 291.638C245.111 291.638 245.838 292.363 245.838 293.258Z" fill="white"/>
<path d="M261 293.258C261 294.153 260.273 294.878 259.376 294.878C258.478 294.878 257.751 294.153 257.751 293.258C257.751 292.363 258.478 291.638 259.376 291.638C260.273 291.638 261 292.363 261 293.258Z" fill="white"/>
<path d="M63.8963 293.258C63.8963 294.153 63.169 294.878 62.2718 294.878C61.3746 294.878 60.6473 294.153 60.6473 293.258C60.6473 292.363 61.3746 291.638 62.2718 291.638C63.169 291.638 63.8963 292.363 63.8963 293.258Z" fill="white"/>
<path d="M79.0581 293.258C79.0581 294.153 78.3308 294.878 77.4336 294.878C76.5364 294.878 75.8091 294.153 75.8091 293.258C75.8091 292.363 76.5364 291.638 77.4336 291.638C78.3308 291.638 79.0581 292.363 79.0581 293.258Z" fill="white"/>
<path d="M109.382 293.258C109.382 294.153 108.654 294.878 107.757 294.878C106.86 294.878 106.133 294.153 106.133 293.258C106.133 292.363 106.86 291.638 107.757 291.638C108.654 291.638 109.382 292.363 109.382 293.258Z" fill="white"/>
<path d="M94.2199 293.258C94.2199 294.153 93.4926 294.878 92.5954 294.878C91.6983 294.878 90.971 294.153 90.971 293.258C90.971 292.363 91.6983 291.638 92.5954 291.638C93.4926 291.638 94.2199 292.363 94.2199 293.258Z" fill="white"/>
<path d="M3.24896 308.38C3.24896 309.275 2.52166 310 1.62448 310C0.727305 310 0 309.275 0 308.38C0 307.485 0.727305 306.76 1.62448 306.76C2.52166 306.76 3.24896 307.485 3.24896 308.38Z" fill="white"/>
<path d="M18.4108 308.38C18.4108 309.275 17.6835 310 16.7863 310C15.8891 310 15.1618 309.275 15.1618 308.38C15.1618 307.485 15.8891 306.76 16.7863 306.76C17.6835 306.76 18.4108 307.485 18.4108 308.38Z" fill="white"/>
<path d="M48.7344 308.38C48.7344 309.275 48.0071 310 47.11 310C46.2128 310 45.4855 309.275 45.4855 308.38C45.4855 307.485 46.2128 306.76 47.11 306.76C48.0071 306.76 48.7344 307.485 48.7344 308.38Z" fill="white"/>
<path d="M33.5726 308.38C33.5726 309.275 32.8453 310 31.9481 310C31.051 310 30.3237 309.275 30.3237 308.38C30.3237 307.485 31.051 306.76 31.9481 306.76C32.8453 306.76 33.5726 307.485 33.5726 308.38Z" fill="white"/>
<path d="M124.544 308.38C124.544 309.275 123.816 310 122.919 310C122.022 310 121.295 309.275 121.295 308.38C121.295 307.485 122.022 306.76 122.919 306.76C123.816 306.76 124.544 307.485 124.544 308.38Z" fill="white"/>
<path d="M139.705 308.38C139.705 309.275 138.978 310 138.081 310C137.184 310 136.456 309.275 136.456 308.38C136.456 307.485 137.184 306.76 138.081 306.76C138.978 306.76 139.705 307.485 139.705 308.38Z" fill="white"/>
<path d="M170.029 308.38C170.029 309.275 169.302 310 168.405 310C167.507 310 166.78 309.275 166.78 308.38C166.78 307.485 167.507 306.76 168.405 306.76C169.302 306.76 170.029 307.485 170.029 308.38Z" fill="white"/>
<path d="M154.867 308.38C154.867 309.275 154.14 310 153.243 310C152.346 310 151.618 309.275 151.618 308.38C151.618 307.485 152.346 306.76 153.243 306.76C154.14 306.76 154.867 307.485 154.867 308.38Z" fill="white"/>
<path d="M185.191 308.38C185.191 309.275 184.464 310 183.566 310C182.669 310 181.942 309.275 181.942 308.38C181.942 307.485 182.669 306.76 183.566 306.76C184.464 306.76 185.191 307.485 185.191 308.38Z" fill="white"/>
<path d="M200.353 308.38C200.353 309.275 199.625 310 198.728 310C197.831 310 197.104 309.275 197.104 308.38C197.104 307.485 197.831 306.76 198.728 306.76C199.625 306.76 200.353 307.485 200.353 308.38Z" fill="white"/>
<path d="M230.676 308.38C230.676 309.275 229.949 310 229.052 310C228.155 310 227.427 309.275 227.427 308.38C227.427 307.485 228.155 306.76 229.052 306.76C229.949 306.76 230.676 307.485 230.676 308.38Z" fill="white"/>
<path d="M215.515 308.38C215.515 309.275 214.787 310 213.89 310C212.993 310 212.266 309.275 212.266 308.38C212.266 307.485 212.993 306.76 213.89 306.76C214.787 306.76 215.515 307.485 215.515 308.38Z" fill="white"/>
<path d="M245.838 308.38C245.838 309.275 245.111 310 244.214 310C243.317 310 242.589 309.275 242.589 308.38C242.589 307.485 243.317 306.76 244.214 306.76C245.111 306.76 245.838 307.485 245.838 308.38Z" fill="white"/>
<path d="M261 308.38C261 309.275 260.273 310 259.376 310C258.478 310 257.751 309.275 257.751 308.38C257.751 307.485 258.478 306.76 259.376 306.76C260.273 306.76 261 307.485 261 308.38Z" fill="white"/>
<path d="M63.8963 308.38C63.8963 309.275 63.169 310 62.2718 310C61.3746 310 60.6473 309.275 60.6473 308.38C60.6473 307.485 61.3746 306.76 62.2718 306.76C63.169 306.76 63.8963 307.485 63.8963 308.38Z" fill="white"/>
<path d="M79.0581 308.38C79.0581 309.275 78.3308 310 77.4336 310C76.5364 310 75.8091 309.275 75.8091 308.38C75.8091 307.485 76.5364 306.76 77.4336 306.76C78.3308 306.76 79.0581 307.485 79.0581 308.38Z" fill="white"/>
<path d="M109.382 308.38C109.382 309.275 108.654 310 107.757 310C106.86 310 106.133 309.275 106.133 308.38C106.133 307.485 106.86 306.76 107.757 306.76C108.654 306.76 109.382 307.485 109.382 308.38Z" fill="white"/>
<path d="M94.2199 308.38C94.2199 309.275 93.4926 310 92.5954 310C91.6983 310 90.971 309.275 90.971 308.38C90.971 307.485 91.6983 306.76 92.5954 306.76C93.4926 306.76 94.2199 307.485 94.2199 308.38Z" fill="white"/>
</svg>
