<svg width="84" height="84" viewBox="0 0 84 84" fill="none" xmlns="http://www.w3.org/2000/svg">
<path d="M73.0302 64.2034C73.0302 68.9758 69.1623 72.8437 64.3899 72.8437H19.4602C14.6877 72.8437 10.8198 68.9758 10.8198 64.2034V19.2736C10.8198 14.5012 14.6877 10.6333 19.4602 10.6333H64.3899C69.1623 10.6333 73.0302 14.5012 73.0302 19.2736V64.2034Z" fill="#7952B3"/>
<path d="M57.5315 44.5059C56.4042 42.9466 54.7841 41.8733 52.6916 41.3062C52.6916 41.3062 54.4534 40.665 56.0464 38.2821C56.9915 36.7633 57.4775 34.9272 57.4775 32.7874C57.4775 29.0748 56.1274 26.2194 53.4341 24.2686C50.7407 22.3178 47.6964 21.0015 42.5324 21.0015H26.3723V62.4751H44.3955C49.2894 62.4413 52.9683 61.3883 55.4727 59.3632C57.9635 57.3111 59.2056 54.2667 59.2056 50.2031C59.2056 47.962 58.652 46.0584 57.5315 44.5059ZM36.7407 27.9137C36.7407 27.9137 43.95 27.9137 44.085 27.9137C46.7108 27.9137 48.8372 30.0401 48.8372 32.6659C48.8372 35.2918 46.7108 37.4181 44.085 37.4181C43.95 37.4181 36.7407 37.4181 36.7407 37.4181V27.9137ZM45.381 55.5628H36.7407V45.1944H45.381C48.2499 45.1944 50.5652 47.5097 50.5652 50.3786C50.5652 53.2474 48.2499 55.5628 45.381 55.5628Z" fill="white"/>
</svg>
