<svg width="83" height="84" viewBox="0 0 83 84" fill="none" xmlns="http://www.w3.org/2000/svg">
<path d="M70.8507 8.90527H12.0964L17.2806 67.6595L41.4736 74.5718L65.6665 67.6595L70.8507 8.90527Z" fill="#0277BD"/>
<path d="M41.4736 14.0898V69.2152L60.828 63.6853L65.1481 14.0898H41.4736Z" fill="#039BE5"/>
<path d="M57.199 22.73H41.4736V29.6422H49.9412L49.4227 36.5545H41.4736V43.4668H49.0771L48.5587 51.2431L41.4736 53.6624V60.9202L55.1254 56.4273L56.335 36.5545L57.199 22.73Z" fill="white"/>
<path d="M41.4736 22.73V29.6422H26.0939L25.5754 22.73H41.4736ZM33.5245 36.5545L33.8702 43.4668H41.4736V36.5545H33.5245ZM34.2158 46.9229H27.3035L27.8219 56.4273L41.4736 60.9202V53.6624L34.3886 51.2431L34.2158 46.9229Z" fill="#EEEEEE"/>
</svg>
