<svg width="62" height="62" viewBox="0 0 62 62" fill="none" xmlns="http://www.w3.org/2000/svg">
<path d="M23.7683 15.8198C16.8078 14.5508 11.3102 15.878 9.11595 19.6948C7.47876 22.5284 7.9486 26.2872 10.2494 30.3027C10.2961 30.3841 10.3585 30.4555 10.4328 30.5128C10.5072 30.5701 10.5921 30.6123 10.6827 30.6368C10.7734 30.6613 10.8679 30.6677 10.961 30.6557C11.0541 30.6436 11.144 30.6134 11.2254 30.5666C11.3068 30.5199 11.3782 30.4576 11.4356 30.3832C11.4929 30.3088 11.535 30.2239 11.5595 30.1333C11.584 30.0427 11.5905 29.9481 11.5784 29.855C11.5664 29.7619 11.5361 29.672 11.4894 29.5906C9.41626 25.9723 9.00938 22.727 10.3511 20.3875C12.1724 17.2342 17.0791 16.0281 23.5116 17.2197C23.6978 17.2537 23.89 17.2124 24.0458 17.1047C24.2016 16.9971 24.3082 16.832 24.3423 16.6457C24.3763 16.4594 24.335 16.2673 24.2273 16.1115C24.1197 15.9557 23.9546 15.849 23.7683 15.815V15.8198ZM13.8677 35.1706C16.9712 38.4967 20.5648 41.3291 24.5239 43.5697C34.6183 49.3822 45.352 50.9564 50.6802 47.343C50.8362 47.2363 50.9436 47.0721 50.9786 46.8863C51.0135 46.7006 50.9733 46.5085 50.8666 46.3524C50.76 46.1963 50.5958 46.089 50.41 46.054C50.2242 46.0191 50.0322 46.0593 49.8761 46.1659C45.1002 49.4064 34.875 47.9145 25.2214 42.3297C21.3957 40.1614 17.9232 37.4223 14.9236 34.2067C14.7951 34.0667 14.6163 33.9834 14.4265 33.9753C14.2366 33.9671 14.0513 34.0347 13.9113 34.1631C13.7712 34.2916 13.688 34.4704 13.6798 34.6603C13.6716 34.8501 13.7392 35.0354 13.8677 35.1755V35.1706Z" fill="#47848F"/>
<path d="M48.951 34.2987C53.5089 28.9173 55.0977 23.502 52.9083 19.7142C51.3002 16.9242 47.895 15.4517 43.3709 15.3936C43.1815 15.3936 42.9997 15.4688 42.8658 15.6028C42.7318 15.7368 42.6565 15.9185 42.6565 16.108C42.6565 16.2975 42.7318 16.4792 42.8658 16.6132C42.9997 16.7472 43.1815 16.8225 43.3709 16.8225C47.4397 16.8757 50.3702 18.1448 51.6925 20.4311C53.5089 23.5795 52.0897 28.4087 47.8805 33.3832C47.8201 33.4548 47.7743 33.5376 47.7459 33.6268C47.7174 33.716 47.7068 33.81 47.7147 33.9033C47.7226 33.9967 47.7488 34.0875 47.7917 34.1707C47.8347 34.254 47.8937 34.3279 47.9652 34.3883C48.0368 34.4488 48.1196 34.4945 48.2088 34.5229C48.298 34.5514 48.392 34.562 48.4853 34.5541C48.5787 34.5462 48.6695 34.5201 48.7528 34.4771C48.836 34.4341 48.9099 34.3751 48.9703 34.3036L48.951 34.2987ZM37.2436 16.0571C32.7714 17.0721 28.4826 18.7712 24.5288 21.0946C14.1099 27.1251 7.30923 35.9843 8.23438 42.4168C8.24806 42.5123 8.28039 42.604 8.32954 42.687C8.37869 42.7699 8.44369 42.8423 8.52083 42.9001C8.59797 42.9579 8.68573 42.9999 8.77912 43.0238C8.8725 43.0477 8.96967 43.0529 9.06509 43.0393C9.1605 43.0256 9.25229 42.9932 9.3352 42.9441C9.41812 42.895 9.49055 42.83 9.54834 42.7528C9.60614 42.6757 9.64818 42.5879 9.67206 42.4945C9.69593 42.4011 9.70119 42.304 9.68751 42.2086C8.83017 36.4978 15.2724 28.0939 25.2408 22.3346C29.0654 20.0789 33.2153 18.4271 37.5439 17.4376C37.6355 17.4179 37.7223 17.3803 37.7994 17.3271C37.8765 17.2738 37.9423 17.2059 37.9931 17.1271C38.044 17.0484 38.0788 16.9605 38.0956 16.8683C38.1125 16.7761 38.111 16.6816 38.0913 16.59C38.0715 16.4984 38.034 16.4115 37.9807 16.3345C37.9274 16.2574 37.8595 16.1916 37.7808 16.1407C37.7021 16.0899 37.6141 16.0551 37.522 16.0382C37.4298 16.0214 37.3352 16.0229 37.2436 16.0426V16.0571Z" fill="#47848F"/>
<path d="M20.3437 46.8777C22.7655 53.5282 26.6405 57.6405 31.0241 57.6405C34.221 57.6405 37.1757 55.4609 39.4813 51.6246C39.5828 51.4634 39.6161 51.2684 39.5738 51.0827C39.5316 50.8969 39.4173 50.7355 39.2561 50.6341C39.0949 50.5326 38.8999 50.4993 38.7142 50.5415C38.5284 50.5838 38.367 50.6981 38.2655 50.8593C36.1924 54.308 33.6494 56.1874 31.029 56.1874C27.3865 56.1874 23.9135 52.5352 21.7096 46.3837C21.6454 46.2057 21.5131 46.0606 21.3419 45.9802C21.1706 45.8998 20.9745 45.8908 20.7966 45.955C20.6186 46.0192 20.4735 46.1515 20.3931 46.3227C20.3127 46.494 20.3036 46.6901 20.3679 46.868L20.3437 46.8777ZM42.1405 45.5748C43.4291 41.2864 44.0675 36.829 44.0344 32.3513C44.0344 20.5277 39.8979 10.3413 34.003 7.72085C33.9172 7.68269 33.8246 7.66181 33.7307 7.65941C33.6367 7.65701 33.5432 7.67314 33.4555 7.70688C33.3678 7.74061 33.2876 7.79129 33.2195 7.85602C33.1514 7.92075 33.0967 7.99826 33.0585 8.08414C32.9814 8.25756 32.9764 8.45451 33.0445 8.63164C33.1127 8.80877 33.2484 8.95159 33.4218 9.02867C38.6773 11.3634 42.6249 21.0315 42.6249 32.3513C42.6571 36.6846 42.04 40.9982 40.794 45.1485C40.766 45.2379 40.7559 45.3319 40.7642 45.4252C40.7726 45.5184 40.7992 45.6092 40.8426 45.6922C40.886 45.7751 40.9453 45.8488 41.0172 45.9088C41.089 45.9689 41.172 46.0142 41.2614 46.0422C41.3508 46.0702 41.4448 46.0803 41.5381 46.0719C41.6313 46.0636 41.7221 46.037 41.805 45.9936C41.888 45.9502 41.9616 45.8908 42.0217 45.819C42.0818 45.7471 42.1271 45.6641 42.1551 45.5748H42.1405ZM55.5626 44.8773C55.5626 44.2019 55.3623 43.5416 54.9871 42.9801C54.6118 42.4185 54.0785 41.9808 53.4545 41.7224C52.8305 41.4639 52.1439 41.3963 51.4815 41.528C50.8191 41.6598 50.2106 41.985 49.7331 42.4626C49.2555 42.9402 48.9303 43.5486 48.7985 44.2111C48.6667 44.8735 48.7344 45.5601 48.9928 46.1841C49.2513 46.808 49.689 47.3414 50.2505 47.7166C50.8121 48.0918 51.4723 48.2921 52.1477 48.2921C52.5962 48.2921 53.0402 48.2038 53.4545 48.0322C53.8688 47.8606 54.2453 47.609 54.5624 47.2919C54.8795 46.9748 55.131 46.5984 55.3026 46.1841C55.4742 45.7698 55.5626 45.3257 55.5626 44.8773ZM54.1337 44.8773C54.1337 45.27 54.0172 45.654 53.799 45.9806C53.5808 46.3072 53.2706 46.5617 52.9077 46.712C52.5448 46.8623 52.1455 46.9017 51.7603 46.825C51.3751 46.7484 51.0212 46.5593 50.7435 46.2815C50.4657 46.0038 50.2766 45.6499 50.1999 45.2647C50.1233 44.8795 50.1626 44.4802 50.313 44.1173C50.4633 43.7544 50.7178 43.4442 51.0444 43.226C51.371 43.0078 51.7549 42.8913 52.1477 42.8913C52.6744 42.8913 53.1796 43.1006 53.552 43.473C53.9244 43.8454 54.1337 44.3506 54.1337 44.8773ZM9.8521 48.2921C10.5275 48.2921 11.1877 48.0918 11.7493 47.7166C12.3109 47.3414 12.7485 46.808 13.007 46.1841C13.2655 45.5601 13.3331 44.8735 13.2013 44.2111C13.0696 43.5486 12.7443 42.9402 12.2668 42.4626C11.7892 41.985 11.1807 41.6598 10.5183 41.528C9.85589 41.3963 9.16928 41.4639 8.5453 41.7224C7.92131 41.9808 7.38799 42.4185 7.01276 42.9801C6.63753 43.5416 6.43726 44.2019 6.43726 44.8773C6.43726 45.7829 6.79703 46.6515 7.43744 47.2919C8.07785 47.9323 8.94643 48.2921 9.8521 48.2921ZM9.8521 46.8632C9.45932 46.8632 9.07536 46.7467 8.74877 46.5285C8.42219 46.3103 8.16764 46.0001 8.01733 45.6372C7.86702 45.2744 7.82769 44.8751 7.90432 44.4898C7.98095 44.1046 8.17009 43.7507 8.44783 43.473C8.72557 43.1953 9.07943 43.0061 9.46466 42.9295C9.8499 42.8529 10.2492 42.8922 10.6121 43.0425C10.975 43.1928 11.2851 43.4473 11.5033 43.7739C11.7216 44.1005 11.838 44.4845 11.838 44.8773C11.838 45.404 11.6288 45.9091 11.2564 46.2815C10.8839 46.654 10.3788 46.8632 9.8521 46.8632Z" fill="#47848F"/>
<path d="M31.0242 11.2037C31.6996 11.2037 32.3598 11.0034 32.9214 10.6282C33.483 10.253 33.9207 9.71965 34.1791 9.09567C34.4376 8.47169 34.5052 7.78508 34.3734 7.12267C34.2417 6.46025 33.9165 5.85178 33.4389 5.37421C32.9613 4.89664 32.3528 4.5714 31.6904 4.43964C31.028 4.30788 30.3414 4.3755 29.7174 4.63396C29.0934 4.89243 28.5601 5.33012 28.1849 5.89168C27.8097 6.45325 27.6094 7.11348 27.6094 7.78887C27.6094 8.69454 27.9692 9.56312 28.6096 10.2035C29.25 10.8439 30.1185 11.2037 31.0242 11.2037ZM31.0242 9.77481C30.6314 9.77481 30.2475 9.65833 29.9209 9.44012C29.5943 9.2219 29.3398 8.91174 29.1895 8.54885C29.0391 8.18597 28.9998 7.78667 29.0764 7.40143C29.1531 7.0162 29.3422 6.66234 29.6199 6.3846C29.8977 6.10686 30.2515 5.91772 30.6368 5.84109C31.022 5.76446 31.4213 5.80379 31.7842 5.9541C32.1471 6.10441 32.4572 6.35896 32.6755 6.68554C32.8937 7.01213 33.0102 7.39609 33.0102 7.78887C33.0102 8.31557 32.8009 8.8207 32.4285 9.19314C32.0561 9.56557 31.5509 9.77481 31.0242 9.77481ZM31.5473 34.7637C31.0699 34.8705 30.5715 34.8332 30.1154 34.6564C29.6592 34.4797 29.2658 34.1714 28.985 33.7708C28.7042 33.3702 28.5487 32.8952 28.5382 32.4061C28.5277 31.917 28.6626 31.4358 28.9259 31.0234C29.1892 30.6111 29.5691 30.2863 30.0172 30.0901C30.4654 29.8939 30.9617 29.8352 31.4433 29.9214C31.9249 30.0076 32.37 30.2349 32.7222 30.5744C33.0745 30.9139 33.318 31.3503 33.4219 31.8284C33.5605 32.4661 33.4411 33.1326 33.0899 33.6826C32.7387 34.2326 32.1841 34.6212 31.5473 34.7637Z" fill="#47848F"/>
</svg>
