<svg width="83" height="84" viewBox="0 0 83 84" fill="none" xmlns="http://www.w3.org/2000/svg">
<path d="M70.8507 8.95801H12.0964L17.2806 67.7123L41.4736 74.6245L65.6665 67.7123L70.8507 8.95801Z" fill="#E65100"/>
<path d="M41.4736 14.1426V69.2679L60.828 63.7381L65.1481 14.1426H41.4736Z" fill="#FF6D00"/>
<path d="M41.4736 43.5195V36.6072H56.335L55.1254 56.48L41.4736 60.973V53.7151L48.5587 51.2958L49.0771 43.5195H41.4736ZM56.8534 29.695L57.3718 22.7827H41.4736V29.695H56.8534Z" fill="white"/>
<path d="M41.4737 53.7151V60.973L27.822 56.48L27.1307 46.9756H34.043L34.3886 51.2958L41.4737 53.7151ZM33.0062 29.695H41.4737V22.7827H25.7483L26.9579 43.5195H41.4737V36.6072H33.5246L33.0062 29.695Z" fill="#EEEEEE"/>
</svg>
