<svg width="83" height="84" viewBox="0 0 83 84" fill="none" xmlns="http://www.w3.org/2000/svg">
<path d="M10.3684 72.791V10.5806H72.5788V72.791H10.3684Z" fill="#FFD600"/>
<path d="M51.0435 57.1471C52.2393 59.0895 53.5388 60.9506 56.2917 60.9506C58.6038 60.9506 59.8169 59.8014 59.8169 58.2116C59.8169 56.309 58.5623 55.6333 56.0186 54.5256L54.6241 53.9312C50.5994 52.2239 47.9226 50.0845 47.9226 45.5656C47.9226 41.401 51.1109 38.2317 56.0929 38.2317C59.6406 38.2317 62.1895 39.4604 64.0282 42.678L59.6838 45.455C58.7282 43.7477 57.6948 43.0755 56.0929 43.0755C54.4582 43.0755 53.4231 44.1071 53.4231 45.455C53.4231 47.1209 54.4599 47.7948 56.8533 48.8265L58.2478 49.4209C62.9914 51.441 65.6664 53.5044 65.6664 58.1425C65.6664 63.1401 61.7195 65.879 56.4213 65.879C51.2388 65.879 48.2959 63.2783 46.6577 60.0589L51.0435 57.1471ZM31.0221 57.2888C31.8965 58.8545 33.2254 60.0589 35.1367 60.0589C36.965 60.0589 38.0174 59.3366 38.0174 56.5285V38.23H43.777V57.4132C43.777 63.2316 40.4021 65.879 35.4736 65.879C31.0204 65.879 27.8062 62.8618 26.4963 60.0589L31.0221 57.2888Z" fill="#000001"/>
</svg>
