<svg width="83" height="83" viewBox="0 0 83 83" fill="none" xmlns="http://www.w3.org/2000/svg">
<path d="M41.4749 58.7563C19.1821 58.7563 1.72803 51.1526 1.72803 41.4751C1.72803 31.7976 19.1821 24.1938 41.4749 24.1938C63.7677 24.1938 81.2218 31.7976 81.2218 41.4751C81.2218 51.1526 63.7677 58.7563 41.4749 58.7563ZM41.4749 27.6501C19.7005 27.6501 5.18428 34.7354 5.18428 41.4751C5.18428 48.2148 19.7005 55.3001 41.4749 55.3001C63.2493 55.3001 77.7655 48.2148 77.7655 41.4751C77.7655 34.7354 63.2493 27.6501 41.4749 27.6501Z" fill="#80DEEA"/>
<path d="M26.0948 77.0742C24.3667 77.0742 22.9842 76.7286 21.6017 75.8645C13.1338 71.0258 15.3804 52.1892 26.4404 32.8342C31.6248 23.848 38.0189 16.2442 44.2401 11.4055C50.9798 6.22108 57.0282 4.66577 61.1757 7.08514C65.496 9.50452 67.0514 15.553 66.0145 24.0208C64.9776 31.9701 61.5214 41.302 56.337 50.2883C51.1526 59.2745 44.7585 66.8783 38.5373 71.717C34.0442 75.1733 29.7239 77.0742 26.0948 77.0742ZM56.8554 9.33171C54.0904 9.33171 50.4613 10.887 46.4867 13.9976C40.611 18.6636 34.5626 25.9217 29.551 34.5623C18.6638 53.3989 17.627 69.6433 23.3298 72.9267C26.2676 74.6548 31.1064 73.0995 36.4635 68.952C42.3392 64.2861 48.3876 57.028 53.3992 48.3873C58.4107 39.7467 61.6942 30.9333 62.731 23.5023C63.5951 16.5898 62.5582 11.7511 59.6204 10.023C58.7564 9.67733 57.8923 9.33171 56.8554 9.33171Z" fill="#80DEEA"/>
<path d="M57.0281 77.0743C48.3875 77.0743 35.945 66.5327 26.6131 50.1156C15.3803 30.7606 13.1337 11.924 21.6015 7.08524C30.0693 2.2465 45.2768 13.4793 56.5096 32.8343C61.694 41.8206 65.1503 51.1524 66.1871 59.1018C67.3968 67.5696 65.6687 73.4452 61.3484 76.0374C59.9659 76.7287 58.5834 77.0743 57.0281 77.0743ZM23.3297 10.0231C17.6268 13.3065 18.6637 29.5509 29.5509 48.3874C40.4381 67.224 53.9175 76.2102 59.6203 72.9268C62.5581 71.1987 63.595 66.3599 62.7309 59.4474C61.694 52.0165 58.4106 43.2031 53.399 34.5624C42.5118 15.7259 29.0325 6.73962 23.3297 10.0231Z" fill="#80DEEA"/>
<path d="M41.475 48.3875C45.2927 48.3875 48.3875 45.2927 48.3875 41.475C48.3875 37.6573 45.2927 34.5625 41.475 34.5625C37.6573 34.5625 34.5625 37.6573 34.5625 41.475C34.5625 45.2927 37.6573 48.3875 41.475 48.3875Z" fill="#80DEEA"/>
</svg>
