<svg width="62" height="62" viewBox="0 0 62 62" fill="none" xmlns="http://www.w3.org/2000/svg">
<path d="M0.96875 30.9565V61.23H61.5156V0.683105H0.96875V30.9565ZM49.7598 28.5347C51.21 28.8712 52.528 29.6296 53.5477 30.7144C54.109 31.2987 54.597 31.9494 55.0008 32.6519C55.0008 32.7294 52.3852 34.4973 50.7916 35.4854C50.7334 35.5242 50.5009 35.2723 50.2442 34.8897C49.9533 34.3877 49.54 33.9676 49.0428 33.6686C48.5456 33.3696 47.9807 33.2014 47.4009 33.1798C45.5652 33.0539 44.3833 34.0178 44.393 35.6017C44.3778 35.996 44.4681 36.3873 44.6545 36.7351C45.0566 37.5731 45.8073 38.072 48.1614 39.0892C52.4966 40.954 54.3517 42.1843 55.5045 43.9329C56.793 45.8704 57.0788 48.9995 56.2069 51.3148C55.2381 53.8336 52.8647 55.5434 49.508 56.1101C47.9748 56.2857 46.4258 56.2695 44.8967 56.0617C42.5631 55.6831 40.4104 54.572 38.75 52.889C38.193 52.2739 37.108 50.6706 37.1758 50.5544C37.3526 50.4231 37.5388 50.3049 37.7328 50.2008L39.9609 48.922L41.6998 47.9145L42.0631 48.4522C42.6762 49.3292 43.4565 50.0765 44.3591 50.6512C46.2966 51.6684 48.9412 51.5279 50.2491 50.3509C50.6882 49.9196 50.9621 49.348 51.0232 48.7355C51.0842 48.123 50.9286 47.5086 50.5833 46.999C50.0989 46.3258 49.1302 45.759 46.4225 44.5772C43.2983 43.2306 41.9517 42.3975 40.7214 41.0703C39.9534 40.1945 39.3863 39.1612 39.06 38.0429C38.8166 36.7654 38.7806 35.457 38.9534 34.1679C39.5977 31.1503 41.8597 29.0433 45.1631 28.4184C46.693 28.2291 48.2426 28.2716 49.7598 28.5444V28.5347ZM35.5483 31.0728V33.5528H27.6869V55.9454H22.1117V33.5479H14.2309V31.1261C14.2098 30.2923 14.2324 29.4581 14.2987 28.6267C14.3278 28.5879 19.1425 28.5686 24.955 28.5783H35.5192L35.5483 31.0728Z" fill="#007ACC"/>
</svg>
